<svg width="19" height="19" viewBox="0 0 19 19" fill="none" xmlns="http://www.w3.org/2000/svg">
<g opacity="0.8">
<g clip-path="url(#clip0_404_9713)">
<path d="M32.6157 25.6781C32.6157 27.2437 31.5469 28.6031 30.0188 28.9875C29.7751 29.0531 29.5969 29.2688 29.5969 29.5312V46.7625C29.5969 47.8312 28.7251 48.7031 27.6563 48.7031H16.5751C16.5751 48.7031 16.5844 48.7031 16.5844 48.6937C17.0251 48.15 17.2688 47.4656 17.2782 46.7625V29.9437C21.2813 28.5656 21.2719 22.8 17.2782 21.3937C22.3032 21.6 27.6751 21.9281 29.8032 22.3125C31.3969 22.575 32.6344 24.0562 32.6157 25.6781ZM16.5751 28.9875C16.3219 29.0531 16.1532 29.2688 16.1532 29.5312V46.7625C16.1532 47.8312 15.2813 48.7031 14.2219 48.7031H-6.65618C-7.72493 48.7031 -8.58743 47.8312 -8.58743 46.7625V29.5312C-8.58743 29.2688 -8.76556 29.0438 -9.00931 28.9875C-10.4906 28.6406 -11.6343 27.225 -11.6062 25.6781C-11.6062 24.0187 -10.4343 22.6031 -8.81243 22.3125C-3.87181 21.4125 1.40632 21.0563 6.42194 21.2344C9.73132 21.3656 13.0782 21.7219 16.3688 22.3125C17.1657 22.4531 17.8782 22.8656 18.3844 23.475C19.9876 25.3219 18.9844 28.4719 16.5751 28.9875ZM16.0594 23.9906C7.95007 22.5375 -0.412432 22.5281 -8.52181 23.9906C-9.74993 24.1687 -10.3499 25.7813 -9.54368 26.7375C-9.30931 27.0375 -8.98118 27.2438 -8.61556 27.3281L-6.88118 27.75V46.4437C-6.88118 46.7531 -6.62806 47.0062 -6.31868 47.0062H13.8844C14.1938 47.0062 14.4469 46.7531 14.4469 46.4437V27.75L16.1719 27.3281C17.8969 26.9344 17.8969 24.3281 16.0594 23.9906ZM16.2001 25.2844C16.4907 25.5938 16.3219 26.1469 15.9001 26.2406L13.7438 26.775C13.4907 26.8406 13.3219 27.0562 13.3219 27.3187V45.8812H-5.76556V27.3094C-5.76556 27.0562 -5.94368 26.8312 -6.19681 26.7656L-8.35306 26.2406C-8.94368 26.1094 -8.91556 25.1906 -8.32493 25.0969C-3.58118 24.2438 1.49069 23.8781 6.30007 24.0656C9.47819 24.1875 12.6938 24.5344 15.8532 25.0969C16.0032 25.1156 16.1157 25.1906 16.2001 25.2844ZM-0.918682 30.5062C1.30319 30.45 1.30319 27.1875 -0.918682 27.1312C-3.14056 27.1969 -3.14056 30.4406 -0.918682 30.5062ZM-0.215557 36.4781C-3.37493 36.5813 -3.37493 41.1469 -0.215557 41.2406C2.92507 41.1375 2.92507 36.5813 -0.215557 36.4781ZM9.64694 33.0656C9.52507 29.175 3.87194 29.1656 3.75007 33.0656C3.87194 36.9469 9.52507 36.9469 9.64694 33.0656ZM7.92194 39.6562C5.21257 39.7219 5.21257 43.6875 7.92194 43.7625C10.6313 43.6875 10.6313 39.7313 7.92194 39.6562ZM-0.356182 28.8187C-0.374932 28.0781 -1.47181 28.0781 -1.49056 28.8187C-1.48118 29.5594 -0.356182 29.5594 -0.356182 28.8187ZM-1.48118 38.8594C-1.43431 40.5188 1.00319 40.5281 1.05007 38.8594C0.993818 37.1906 -1.44368 37.2 -1.48118 38.8594ZM8.53132 33.0656C8.46569 30.6563 4.94069 30.6563 4.87507 33.0656C4.94069 35.4656 8.46569 35.4656 8.53132 33.0656ZM6.99382 41.7094C7.02194 42.9281 8.83132 42.9281 8.85007 41.7094C8.84069 40.4906 7.01257 40.4906 6.99382 41.7094ZM0.796944 9.4125C0.796944 4.66875 4.66882 0.796875 9.41257 0.796875C14.1657 0.796875 18.0282 4.66875 18.0282 9.4125C17.5688 20.8406 1.27507 20.85 0.796944 9.4125ZM5.79382 9.7875L8.93444 15.2344C9.03757 15.4125 9.21569 15.5156 9.41257 15.5156C9.61882 15.5156 9.79694 15.4125 9.90007 15.2344L13.0407 9.7875C13.2657 9.43125 12.9751 8.93438 12.5532 8.94375H11.3626V3.88125C11.3626 3.57188 11.1094 3.31875 10.8001 3.31875H8.02507C7.71569 3.31875 7.46257 3.5625 7.46257 3.88125V8.95312H6.26257C5.85944 8.93437 5.56882 9.44063 5.79382 9.7875ZM11.5876 10.0688C11.1001 10.05 10.2657 10.2375 10.2469 9.50625V4.43437H8.59694V9.50625C8.56882 10.2375 7.73444 10.0406 7.25632 10.0688L9.42194 13.8375L11.5876 10.0688Z" fill="white"/>
</g>
<path d="M64.4652 -25H-65C-70.5228 -25 -75 -20.5229 -75 -15V124.144C-75 129.667 -70.5229 134.144 -65 134.144H74.1444C79.6672 134.144 84.1444 129.667 84.1444 124.144V-8.31551" stroke="#F5A228"/>
</g>
<defs>
<clipPath id="clip0_404_9713">
<rect width="48" height="48" fill="white" transform="translate(-13.5 0.75)"/>
</clipPath>
</defs>
</svg>
