<svg width="48" height="48" viewBox="0 0 48 48" fill="none" xmlns="http://www.w3.org/2000/svg">
<path d="M23.5723 2.75C23.0675 2.75 22.5688 2.77325 22.0723 2.80775V23.75H45.3035C45.1036 18.1176 42.7273 12.7823 38.6745 8.86583C34.6217 4.94941 29.2082 2.75713 23.5723 2.75ZM38.4508 16.5372C38.394 16.6741 38.298 16.7912 38.1748 16.8735C38.0516 16.9559 37.9067 16.9999 37.7585 17H30.6973L29.75 17.9473C31.2317 18.2729 32.5887 19.0172 33.6598 20.0915L33.7888 20.2197C33.8936 20.3246 33.965 20.4583 33.994 20.6037C34.0229 20.7492 34.008 20.9 33.9513 21.037C33.8945 21.174 33.7984 21.2911 33.6751 21.3736C33.5518 21.456 33.4068 21.5 33.2585 21.5H26.1973L24.8525 22.844L23.792 21.7835L25.0085 20.5677V13.25C25.0085 13.1017 25.0526 12.9567 25.135 12.8334C25.2174 12.7101 25.3345 12.614 25.4715 12.5572C25.6085 12.5005 25.7593 12.4856 25.9048 12.5146C26.0503 12.5435 26.1839 12.6149 26.2888 12.7197L26.417 12.848C27.5438 13.9705 28.3071 15.4059 28.6078 16.9678L29.5078 16.0677V8.75C29.5078 8.60169 29.5518 8.45671 29.6342 8.33341C29.7166 8.2101 29.8337 8.11399 29.9708 8.05724C30.1078 8.00049 30.2586 7.98564 30.404 8.01456C30.5495 8.04349 30.6831 8.11489 30.788 8.21975L30.9163 8.348C32.043 9.47055 32.8063 10.9059 33.107 12.4677L35.4163 10.1585L36.4768 11.219L34.2493 13.4473C35.7309 13.7729 37.0879 14.5172 38.159 15.5915L38.288 15.7197C38.393 15.8246 38.4644 15.9583 38.4934 16.1038C38.5224 16.2493 38.5075 16.4002 38.4508 16.5372Z" fill="white"/>
<path d="M32.1973 15.4999H35.5438C34.7305 15.0738 33.8355 14.8265 32.9188 14.7747L32.1973 15.4999Z" fill="white"/>
<path d="M12.2472 27.0852C12.1915 27.1967 12.1087 27.2926 12.0066 27.3641C11.9045 27.4356 11.7861 27.4805 11.6622 27.4947C11.6324 27.4985 11.6023 27.5003 11.5722 27.5C11.4623 27.4999 11.3537 27.4757 11.2542 27.4291C11.1547 27.3824 11.0666 27.3144 10.9962 27.23L8.32249 24.0222C8.18303 24.2976 7.98822 24.5412 7.75024 24.7377L9.60124 27.977C9.90978 28.5169 10.0721 29.1281 10.0722 29.75C10.0722 30.1478 10.2303 30.5293 10.5116 30.8106C10.7929 31.0919 11.1744 31.25 11.5722 31.25C11.9701 31.25 12.3516 31.0919 12.6329 30.8106C12.9142 30.5293 13.0722 30.1478 13.0722 29.75C13.072 29.1825 13.151 28.6178 13.307 28.0722L14.3742 24.3372C14.1596 24.2642 13.9538 24.1674 13.7607 24.0485L12.2472 27.0852Z" fill="white"/>
<path d="M11.8827 24.4512C11.3834 24.3539 10.9321 24.0893 10.6032 23.7012C10.4185 23.7331 10.2311 23.7474 10.0437 23.7439L11.414 25.3872L11.8827 24.4512Z" fill="white"/>
<path d="M31.0085 14.5679L31.748 13.8284C31.7264 12.8293 31.4732 11.8488 31.0085 10.9641V14.5679Z" fill="white"/>
<path d="M5.57227 20.75C5.57226 21.0494 5.66186 21.3419 5.82952 21.59C5.92295 21.7283 5.96756 21.8939 5.95628 22.0604C5.94501 22.227 5.87849 22.385 5.76727 22.5095C5.64318 22.6449 5.57371 22.8215 5.57227 23.0052C5.57226 23.203 5.65035 23.3927 5.78954 23.5332C5.92874 23.6736 6.11778 23.7535 6.31552 23.7552L6.94927 23.393C7.02638 23.2781 7.06905 23.1436 7.07227 23.0052C7.05285 22.8304 7.08983 22.6539 7.1778 22.5016C7.26577 22.3493 7.40013 22.229 7.56127 22.1585C7.74933 22.0911 7.92217 21.9871 8.06977 21.8525C8.20795 21.7296 8.38668 21.662 8.57163 21.6628C8.75657 21.6637 8.93469 21.7328 9.07177 21.857C9.28138 22.0471 9.5405 22.174 9.8192 22.2231C10.0979 22.2722 10.3848 22.2415 10.6468 22.1345C10.7377 22.0966 10.8352 22.0769 10.9337 22.0767C11.0322 22.0764 11.1297 22.0956 11.2208 22.133C11.3119 22.1705 11.3948 22.2256 11.4646 22.295C11.5344 22.3645 11.5899 22.4471 11.6278 22.538C11.6882 22.6612 11.7805 22.7659 11.8951 22.8415C12.0096 22.9171 12.1422 22.9606 12.2793 22.9678C12.4163 22.9749 12.5527 22.9452 12.6745 22.882C12.7962 22.8187 12.8989 22.724 12.9718 22.6077C13.0297 22.5013 13.1125 22.4105 13.2132 22.3431C13.3138 22.2757 13.4293 22.2336 13.5498 22.2206C13.6702 22.2075 13.792 22.2239 13.9048 22.2682C14.0176 22.3125 14.1179 22.3834 14.1973 22.475C14.3355 22.6388 14.5077 22.7706 14.702 22.8613C14.8962 22.952 15.1079 22.9993 15.3223 23C15.7201 23 16.1016 22.8419 16.3829 22.5606C16.6642 22.2793 16.8223 21.8978 16.8223 21.5C16.8223 21.1022 16.6642 20.7206 16.3829 20.4393C16.1016 20.158 15.7201 20 15.3223 20C15.1484 20.0021 14.9763 20.0348 14.8138 20.0967C14.6969 20.1391 14.5714 20.1517 14.4484 20.1336C14.3255 20.1154 14.209 20.0669 14.1094 19.9925C14.0098 19.9182 13.9303 19.8202 13.8779 19.7075C13.8256 19.5948 13.8021 19.4708 13.8095 19.3467C13.8095 19.328 13.8193 19.2485 13.8223 19.229C13.8187 18.8983 13.7055 18.5781 13.5003 18.3186C13.2951 18.0592 13.0096 17.8753 12.6886 17.7956C12.3676 17.716 12.0292 17.7452 11.7266 17.8787C11.424 18.0121 11.1742 18.2422 11.0165 18.533C10.961 18.6338 10.883 18.7204 10.7886 18.7862C10.6942 18.852 10.5859 18.8952 10.4722 18.9125C10.3584 18.9297 10.2422 18.9206 10.1325 18.8857C10.0229 18.8509 9.9227 18.7912 9.83977 18.7115C9.75 18.6318 9.64286 18.5742 9.52689 18.5433C9.41092 18.5124 9.28933 18.509 9.17181 18.5334C9.05429 18.5578 8.94411 18.6093 8.85004 18.6839C8.75597 18.7584 8.68063 18.8539 8.63002 18.9627C8.5921 19.0536 8.53665 19.1362 8.46683 19.2057C8.39701 19.2752 8.31419 19.3302 8.22309 19.3677C8.132 19.4051 8.03441 19.4243 7.93591 19.4241C7.83741 19.4238 7.73992 19.4042 7.64902 19.3662C7.42115 19.2713 7.17337 19.2341 6.92768 19.2579C6.68198 19.2817 6.44595 19.3658 6.24053 19.5026C6.0351 19.6395 5.86664 19.825 5.75006 20.0426C5.63349 20.2601 5.57242 20.5031 5.57227 20.75Z" fill="white"/>
<path d="M27.6973 19.9999H31.0438C30.2305 19.5738 29.3355 19.3265 28.4188 19.2747L27.6973 19.9999Z" fill="white"/>
<path d="M26.5085 19.0679L27.248 18.3284C27.2264 17.3293 26.9732 16.3488 26.5085 15.4641V19.0679Z" fill="white"/>
<path d="M33.3223 33.5C33.3223 30.965 32.0315 28.844 30.3223 28.3557V29.75H31.0723V31.25H30.3223V32H31.0723V33.5H30.3223V34.8552L31.4473 37.6625C32.071 37.1701 32.5669 36.5348 32.8933 35.8103C33.2196 35.0858 33.3668 34.2933 33.3223 33.5Z" fill="white"/>
<path d="M27.6972 37.6625L28.8222 34.8552V33.5H28.0722V32H28.8222V31.25H28.0722V29.75H28.8222V28.3557C27.113 28.844 25.8222 30.965 25.8222 33.5C25.7777 34.2933 25.9248 35.0858 26.2512 35.8103C26.5776 36.5348 27.0735 37.1701 27.6972 37.6625Z" fill="white"/>
<path d="M22.0723 46.1922C22.5688 46.2267 23.0675 46.25 23.5723 46.25C29.2082 46.2429 34.6217 44.0506 38.6745 40.1342C42.7273 36.2177 45.1036 30.8824 45.3035 25.25H22.0723V46.1922ZM29.5723 26.75C30.369 26.7558 31.1484 26.9841 31.8223 27.4093C32.4974 26.9868 33.2759 26.7587 34.0723 26.75C36.9673 26.75 39.3223 29.7785 39.3223 33.5C39.3856 34.7142 39.0952 35.9207 38.4863 36.9731C37.8773 38.0255 36.976 38.8786 35.8918 39.4287C35.7918 39.4757 35.6827 39.5001 35.5723 39.5C35.4255 39.5 35.282 39.4569 35.1595 39.3761C35.037 39.2953 34.9408 39.1804 34.883 39.0455L33.983 36.9455C33.4073 38.0289 32.4983 38.8983 31.3903 39.425C31.2978 39.4686 31.1973 39.4929 31.0951 39.4962C30.9928 39.4996 30.891 39.482 30.7958 39.4446C30.7006 39.4072 30.6141 39.3506 30.5416 39.2785C30.469 39.2064 30.412 39.1202 30.374 39.0253L29.5723 37.019L28.769 39.029C28.731 39.124 28.674 39.2102 28.6015 39.2823C28.5289 39.3544 28.4424 39.4109 28.3472 39.4483C28.252 39.4858 28.1502 39.5034 28.048 39.5C27.9457 39.4966 27.8453 39.4724 27.7528 39.4287C26.6685 38.8786 25.7672 38.0255 25.1583 36.9731C24.5493 35.9207 24.2589 34.7142 24.3223 33.5C24.3223 29.7785 26.6773 26.75 29.5723 26.75Z" fill="white"/>
<path d="M34.7015 34.8155L35.9278 37.6745C36.557 37.1833 37.058 36.547 37.3879 35.82C37.7178 35.0931 37.8669 34.2971 37.8223 33.5C37.8223 30.605 36.14 28.25 34.0723 28.25C33.7218 28.2537 33.3753 28.3245 33.0515 28.4585C34.2264 29.8728 34.8547 31.6617 34.8223 33.5C34.8189 33.9411 34.7785 34.3811 34.7015 34.8155Z" fill="white"/>
<path d="M1.82227 24.4999C1.82942 29.7463 3.73007 34.8138 7.17482 38.7708C10.6196 42.7279 15.3769 45.3086 20.5723 46.0384V2.96143C15.3769 3.69129 10.6196 6.27195 7.17482 10.229C3.73007 14.1861 1.82942 19.2535 1.82227 24.4999ZM10.175 17.1679C10.5442 16.7836 11.0094 16.5049 11.5224 16.3608C12.0355 16.2166 12.5778 16.2123 13.0931 16.3481C13.6084 16.484 14.078 16.7551 14.4534 17.1334C14.8287 17.5118 15.096 17.9835 15.2278 18.4999C15.9782 18.48 16.7088 18.7422 17.2754 19.2347C17.842 19.7272 18.2033 20.4142 18.2881 21.1601C18.3729 21.906 18.1749 22.6566 17.7333 23.2636C17.2917 23.8707 16.6385 24.2902 15.9028 24.4392L14.747 28.4832C14.6304 28.8953 14.5716 29.3216 14.5723 29.7499C14.5723 30.5456 14.2562 31.3086 13.6936 31.8712C13.131 32.4339 12.3679 32.7499 11.5723 32.7499C10.7766 32.7499 10.0136 32.4339 9.45094 31.8712C8.88834 31.3086 8.57227 30.5456 8.57227 29.7499C8.57205 29.3891 8.47797 29.0344 8.29927 28.7209L6.31852 25.2552C5.72243 25.2542 5.1511 25.0167 4.72995 24.5948C4.3088 24.173 4.07226 23.6013 4.07227 23.0052C4.07287 22.6436 4.16141 22.2876 4.33027 21.9679C4.10892 21.4698 4.02748 20.9208 4.09469 20.3798C4.1619 19.8389 4.37522 19.3265 4.71174 18.8977C5.04825 18.4688 5.49525 18.1398 6.00469 17.9459C6.51414 17.752 7.06679 17.7006 7.60327 17.7972C7.9158 17.4414 8.3301 17.1903 8.79008 17.0777C9.25007 16.9652 9.73352 16.9967 10.175 17.1679Z" fill="white"/>
</svg>
