<svg width="58" height="44" viewBox="0 0 58 44" fill="none" xmlns="http://www.w3.org/2000/svg">
<path d="M57.1288 23.7969C57.0641 22.7784 57.1288 21.7599 57.1288 20.7414C57.1288 19.341 57.0641 18.0042 57.1288 16.6037C57.1936 12.1477 55.2511 8.45565 51.6898 5.90938C43.7902 0.243918 34.9195 -1.09288 25.4659 0.81683C20.2211 1.899 15.6886 4.31796 12.2569 8.58296C10.6381 10.4927 10.0553 12.657 10.6381 15.1396C10.8971 16.0308 11.0266 16.922 11.2209 17.8132C11.4799 19.0227 11.1561 20.1049 10.1201 20.8051C9.27835 21.378 8.37184 21.8872 7.40059 22.2692C5.84658 22.9694 4.16307 23.4787 2.60907 24.1789C0.796058 24.9428 0.0838047 26.3432 0.148555 28.2529C0.213305 29.8443 0.407556 31.4358 0.278056 33.0272C0.148555 34.7459 0.990309 35.9554 2.28531 36.7829C4.61633 38.2471 6.88259 39.7748 9.3431 40.7933C17.5016 44.1035 26.1134 44.74 34.79 43.2123C41.7182 42.0028 48.0638 39.2656 52.9848 34.0457C55.7043 31.1175 57.3231 27.8073 57.1288 23.7969ZM52.9848 22.6511C49.8768 28.4439 44.7615 31.8177 38.6102 33.7274C35.567 34.6823 32.3295 35.1279 29.1567 35.7008C27.5379 35.9554 25.8544 36.2737 24.4947 36.2737C18.7966 36.401 13.4871 35.3188 8.63084 33.1545C6.88259 32.4543 5.39333 31.2448 3.83932 30.099C3.32132 29.717 2.99757 29.0168 2.73857 28.3802C2.35006 27.68 2.54432 27.0434 3.25657 26.8525C4.35732 26.2796 5.52283 25.7067 6.68833 25.1337C8.04809 24.4972 9.4726 23.9879 10.7676 23.224C13.1634 21.8236 13.9404 19.9139 13.4224 17.1766C13.2929 16.4764 13.1634 15.7762 12.9691 15.076C12.3864 12.9116 13.0339 11.1292 14.5231 9.53782C18.4081 5.46378 23.2644 3.23579 28.8977 2.66288C35.049 2.02631 41.006 2.79019 46.5098 5.59109C48.6465 6.6096 50.589 8.13737 52.2078 9.8561C55.3158 13.1026 55.4453 18.0678 52.9848 22.6511Z" fill="white"/>
<path d="M47.423 9.4853C45.1791 8.09495 42.6712 6.95739 40.0973 6.32541C34.0255 4.87186 27.9538 5.31424 22.2121 7.84216C20.9581 8.41094 19.6382 8.97972 18.4502 9.67489C15.9423 11.1916 15.4803 12.6452 16.4703 15.2995C17.9222 19.1546 16.4703 22.504 12.5765 24.2104C11.2565 24.7792 9.87059 25.032 8.55064 25.6639C7.75868 26.0431 6.63673 26.6751 6.57073 27.3071C6.50473 28.0655 7.3627 28.887 7.95667 29.5822C8.35265 30.0246 8.94663 30.2774 9.5406 30.5302C13.7644 32.4261 18.3182 32.7421 22.542 32.9949C28.6138 33.0581 34.1575 32.5525 39.5693 30.5302C44.4531 28.6974 48.3469 25.7903 50.5248 21.1769C52.5707 16.8794 51.4488 12.0132 47.423 9.4853ZM47.159 18.7122C46.697 19.2178 44.4531 19.0282 43.7931 18.5226C43.0671 17.9538 42.2752 17.385 41.4832 16.8794C40.9552 16.5635 40.4273 16.3107 39.7673 16.2475C38.7773 16.1843 38.4473 16.6898 37.9194 17.1954C37.1934 17.6378 36.6654 18.2698 35.9395 18.7754C35.5435 19.0282 35.0155 19.2178 34.5535 19.1546C34.2235 19.1546 33.6956 18.7122 33.6956 18.3962C33.6296 17.701 34.0255 17.6378 34.3555 17.4482C35.2135 17.0058 36.0714 16.753 36.9294 16.3739C38.1834 15.8051 38.7113 14.8571 38.5793 13.5932C38.5133 12.6452 38.2494 11.7604 38.1174 10.8125C38.0514 10.4965 38.3153 9.5485 38.5133 9.4221C38.9093 9.16931 38.7773 9.16931 39.3053 9.10611C39.4373 9.10611 40.2293 9.3589 40.2293 10.1805C40.2293 10.7493 39.9653 11.3812 39.8993 11.95C39.7013 14.3515 40.7572 15.9947 43.0671 16.8162C43.7931 17.069 45.377 17.069 46.169 17.1322C46.961 17.1954 47.291 17.6378 47.357 17.8906C47.423 18.1434 47.489 18.333 47.159 18.7122Z" fill="white"/>
</svg>
