<svg width="90" height="56" viewBox="0 0 90 56" fill="none" xmlns="http://www.w3.org/2000/svg">
<path fill-rule="evenodd" clip-rule="evenodd" d="M26.3852 22.2557L17.2537 19.0552C16.7682 18.8836 16.2329 19.126 16.0566 19.5927C15.8802 20.0593 16.1301 20.5752 16.6148 20.7452L25.7463 23.9458C25.8518 23.9829 25.9598 24 26.0657 24C26.4473 24 26.8052 23.7736 26.9434 23.4084C27.1198 22.9417 26.8699 22.4258 26.3852 22.2557ZM60.9578 40.9654V42.4748C60.9578 46.0768 63.676 50.2186 63.676 52.0651C63.676 54.2387 61.9036 56.0011 59.7097 56C57.5148 56.0011 55.7433 54.2387 55.7433 52.0651C55.7433 50.2186 58.4616 46.0768 58.4616 42.4748V41.4456C58.4616 39.9792 57.4551 39.0304 56.5884 38.7715L13.0176 23.0808C12.2166 22.7914 11.8019 21.9118 12.0931 21.1197L16.9167 8.00664C17.1379 7.40466 17.7244 7 18.3754 7C18.5534 7 18.7292 7.03115 18.8977 7.09166L64.9826 23.6892C65.7833 23.9782 66.1982 24.8572 65.9068 25.6494L61.6111 37.327C61.0499 38.7442 60.9578 40.4021 60.9578 40.9654ZM70.4715 23.1603C68.6714 24.0648 68.2524 24.3463 67.3195 26.9691C67.3184 26.9723 63.9418 35.9796 63.0575 38.3394C62.8901 38.7853 63.0974 39.1492 63.5607 38.9387L70.6928 35.7022C71.7532 35.2206 73.0339 33.8604 73.4333 32.7911L77.9567 20.7165C78.1153 20.299 77.827 19.8179 77.2742 20.0695L70.4715 23.1603ZM64.1857 21.1997L20.2593 5.49911C19.839 5.32494 19.9688 4.82517 20.3689 4.63275C20.585 4.5288 27.3444 1.43229 27.3444 1.43229C27.9342 1.16183 28.8144 1 29.6992 1C30.3631 1 30.9811 1.09052 31.4397 1.25441C31.4397 1.25441 76.1161 17.2289 76.3737 17.3168C77.2409 17.613 77.1526 18.4761 76.4456 18.7772C75.6841 19.1018 70.2267 21.6176 70.2267 21.6176C68.757 22.2036 66.9132 22.155 64.1857 21.1997Z" fill="white"/>
</svg>
