<svg width="51" height="53" viewBox="0 0 51 53" fill="none" xmlns="http://www.w3.org/2000/svg">
<g clip-path="url(#clip0_248_8659)">
<path d="M27.8717 0L2.5 24L49.5 10.5763L27.8717 0ZM29.9513 7.11864C31.1991 7.11864 32.031 7.9322 32.031 9.15254C32.031 10.3729 31.1991 11.1864 29.9513 11.1864C28.7035 11.1864 27.8717 10.3729 27.8717 9.15254C27.8717 8.13559 28.7035 7.11864 29.9513 7.11864Z" fill="white"/>
<path d="M50.5 12L0.5 26.6429V36.0561C2.58333 36.0561 4.25 37.7296 4.25 39.8214C4.25 41.9133 2.58333 43.5867 0.5 43.5867V53L50.5 36.2653V12ZM31.3333 21.4133C33.4167 21.4133 35.0833 23.0867 35.0833 25.1786C35.0833 27.2704 33.4167 28.9439 31.3333 28.9439C29.25 28.9439 27.5833 27.2704 27.5833 25.1786C27.5833 23.0867 29.25 21.4133 31.3333 21.4133ZM43.8333 27.6888C45.2917 27.6888 46.3333 28.9439 46.5417 30.4082C46.5417 31.8724 45.2917 33.1276 43.8333 33.1276C42.375 33.1276 41.3333 31.8724 41.125 30.4082C41.125 28.9439 42.375 27.6888 43.8333 27.6888ZM11.3333 29.7806C13.4167 29.7806 15.0833 31.4541 15.0833 33.5459C15.0833 35.6378 13.4167 37.3112 11.3333 37.3112C9.25 37.3112 7.58333 35.6378 7.58333 33.5459C7.79167 31.4541 9.45833 29.7806 11.3333 29.7806ZM23.8333 33.9643C25.2917 33.9643 26.5417 35.2194 26.5417 36.6837C26.5417 38.148 25.2917 39.4031 23.8333 39.4031C22.375 39.4031 21.125 38.148 21.125 36.6837C21.125 35.2194 22.5833 33.9643 23.8333 33.9643Z" fill="white"/>
</g>
<defs>
<clipPath id="clip0_248_8659">
<rect width="50" height="53" fill="white" transform="translate(0.5)"/>
</clipPath>
</defs>
</svg>
