<svg width="79" height="48" viewBox="0 0 79 48" fill="none" xmlns="http://www.w3.org/2000/svg">
<path fill-rule="evenodd" clip-rule="evenodd" d="M50.2869 40.9037C47.7055 42.4614 44.6079 43.1537 41.6823 43.1537C35.3148 43.1537 29.4637 39.6922 26.366 34.1537C21.5474 25.6729 24.473 14.7691 33.0776 9.92295C34.2823 9.23064 35.8311 8.53833 37.552 8.0191C35.3148 6.80756 33.2497 5.94218 31.5288 5.42295C18.966 1.2691 5.37065 8.19218 1.24042 20.6537C-1.47521 28.8454 0.414371 36.8208 5.47219 43.2229C7.90042 46.2951 11.6589 47.9999 15.5586 47.9999H66.9834C69.2636 47.9999 71.3769 46.6118 72.1169 44.4431C72.1255 44.4172 72.1341 44.3912 72.1427 44.3653C73.8637 39.5191 69.7334 33.1153 63.7102 26.8845C60.0962 32.9422 54.5893 38.4806 50.2869 40.9037Z" fill="white"/>
<path fill-rule="evenodd" clip-rule="evenodd" d="M78.4462 9.11312C77.5808 7.73756 76.023 6.70588 74.4652 6.70588H74.2921C75.1575 4.98643 75.3306 3.78281 74.4652 2.23529C73.5997 0.859728 72.215 0 70.6572 0C69.9649 0 69.0994 0.171946 68.4071 0.687783C66.33 1.8914 65.4645 4.64253 66.6762 6.70588C66.8493 6.87783 67.0223 7.22172 67.1954 7.39367L58.3679 12.3801C56.4639 11.3484 53.8676 11.0045 51.0982 11.0045C45.3862 11.0045 38.8089 12.724 35.3471 14.6154C29.289 18.0543 27.2119 25.6199 30.6737 31.638C32.9238 35.5928 37.2511 38 41.5783 38C43.6554 38 45.7324 37.4842 47.8095 36.4525C52.8291 33.5294 61.1373 24.2443 61.4835 17.8824L70.311 12.8959C70.4841 13.2398 70.4841 13.4118 70.6572 13.7557C71.5227 15.1312 72.9074 15.991 74.4652 15.991C75.1575 15.991 76.023 15.6471 76.7153 15.3032C78.7924 14.0995 79.6578 11.1765 78.4462 9.11312Z" fill="white"/>
</svg>
