<svg width="74" height="50" viewBox="0 0 74 50" fill="none" xmlns="http://www.w3.org/2000/svg">
<g clip-path="url(#clip0_248_8703)">
<path fill-rule="evenodd" clip-rule="evenodd" d="M60.957 2.54931C50.3525 -2.63042 37.5481 3.17023 32.3445 15.5068C38.8225 16.1441 43.5862 18.9709 44.3448 23.2519C44.5268 24.3304 44.451 25.4251 44.1475 26.5199C44.2841 33.3336 42.0236 39.8369 37.8667 44.412C39.1411 45.5232 40.5672 46.4872 42.1298 47.2552C52.7343 52.4349 65.5387 46.6343 70.7423 34.2813C75.946 21.9447 71.5616 7.72905 60.957 2.54931ZM59.4096 16.5853C58.4842 17.484 56.9367 17.2715 55.9658 16.0951C54.9948 14.9186 54.9645 13.2519 55.9051 12.3532C56.8305 11.4545 58.378 11.6833 59.3489 12.8434C60.3047 14.0036 60.335 15.6866 59.4096 16.5853ZM59.5158 9.28134C58.5903 10.18 57.0429 9.95127 56.072 8.79114C55.101 7.61467 55.0707 5.94801 56.0113 5.04931C56.9367 4.15062 58.4842 4.37938 59.4551 5.53951C60.4109 6.69964 60.4412 8.38265 59.5158 9.28134ZM64.9773 14.0036C64.0367 14.9023 62.5045 14.6735 61.5335 13.5134C60.5626 12.3369 60.5322 10.6702 61.4577 9.77153C62.3983 8.87284 63.9305 9.1016 64.9015 10.2617C65.8724 11.4219 65.9028 13.1049 64.9773 14.0036Z" fill="white"/>
<path fill-rule="evenodd" clip-rule="evenodd" d="M42.7516 24.0358C41.5986 17.7777 31.3127 14.7058 19.7827 17.1731C8.31339 19.6241 -0.061016 26.6502 1.00096 32.892L0.940271 32.9084C1.24369 33.9215 1.59263 34.9019 2.01741 35.8986C7.28176 48.2188 20.1164 53.9541 30.6906 48.709C38.3823 44.9018 42.7668 36.3234 42.5544 27.1894C42.873 26.1273 42.9488 25.0653 42.7516 24.0358ZM23.2568 36.3561C12.7585 38.611 3.47383 36.2581 2.51806 31.111C1.56228 25.9639 9.31467 19.9509 19.813 17.7123C30.3114 15.4574 39.6112 17.8103 40.5518 22.9574C41.5076 28.1045 33.7552 34.1012 23.2568 36.3561Z" fill="white"/>
<path fill-rule="evenodd" clip-rule="evenodd" d="M37.0016 23.611C36.5465 21.1273 33.5729 19.4116 29.052 19.0031C26.4729 18.7744 23.5601 18.9868 20.6169 19.6077C20.0404 19.7221 19.4942 19.7221 18.9329 19.8691C18.0075 20.0652 17.1275 20.4247 16.3083 20.6698C9.84545 22.5979 5.2638 26.7319 6.06786 29.9018C6.3106 30.8495 7.02364 31.6175 8.07044 32.1567C9.40549 33.4803 11.7722 34.379 14.8671 34.6567C17.4461 34.8855 20.359 34.6731 23.3022 34.0521C27.277 33.2025 30.8877 31.6665 33.4667 29.7384C36.1217 27.7776 37.3809 25.6044 37.0016 23.611ZM33.1026 29.1992C30.5994 31.0783 27.0646 32.5652 23.1808 33.3986C20.2983 34.0195 17.4461 34.2156 14.9277 33.9868C11.7873 33.709 9.46617 32.794 8.31318 31.4704C8.17664 31.2417 8.07044 30.9803 7.99459 30.7188C7.17535 27.5489 11.757 23.4149 18.235 21.4868C21.9064 20.392 27.9748 19.3626 30.4477 20.0162C30.3415 19.9508 30.2201 19.8855 30.0988 19.8364C33.7095 20.3593 36.0306 21.7972 36.3947 23.758C36.6982 25.441 35.53 27.3855 33.1026 29.1992Z" fill="white"/>
</g>
<defs>
<clipPath id="clip0_248_8703">
<rect width="73.4277" height="50" fill="white"/>
</clipPath>
</defs>
</svg>
