<svg width="49" height="48" viewBox="0 0 49 48" fill="none" xmlns="http://www.w3.org/2000/svg">
<g clip-path="url(#clip0_352_11331)">
<path fill-rule="evenodd" clip-rule="evenodd" d="M22.0614 47.6417C22.0588 47.6417 22.0588 47.6417 22.0588 47.6417C21.1207 47.6417 20.0789 47.5327 18.9654 47.3201C15.9651 46.8869 13.3129 45.2898 11.4952 42.8209C9.62427 40.283 8.83764 37.0408 9.33726 33.9236C9.33991 33.905 9.34257 33.889 9.34789 33.8731C10.1079 30.5087 9.27879 27.4419 8.40181 24.1971C7.78793 21.9249 7.15012 19.5757 7.03319 17.0085C6.895 14.0773 7.47168 11.2842 8.79247 8.47257C10.1505 5.5812 12.1808 3.33294 14.825 1.78893C17.2274 0.388419 20.0603 -0.353027 23.0181 -0.353027C27.1904 -0.353027 31.3999 1.14581 34.5703 3.76346C38.1181 6.68938 40.1883 10.7208 40.5577 15.422C40.5604 15.4512 40.5604 15.4831 40.5604 15.515C40.2388 24.2555 37.0339 28.0425 34.4587 31.0854C33.122 32.6639 32.0643 33.9103 31.6816 35.5287C31.5886 35.9273 31.4983 36.3233 31.4052 36.7193C30.1722 42.0901 28.8939 47.6417 22.0614 47.6417ZM26.627 24.8694C29.2208 24.8694 31.3335 22.7567 31.3335 20.163C31.3335 17.5666 29.2208 15.4565 26.627 15.4565C24.0333 15.4565 21.9206 17.5666 21.9206 20.163C21.9206 22.7567 24.0333 24.8694 26.627 24.8694ZM26.627 16.275C28.769 16.275 30.5123 18.0184 30.5123 20.163C30.5123 22.3049 28.769 24.0483 26.627 24.0483C24.4851 24.0483 22.7418 22.3049 22.7418 20.163C22.7418 18.0184 24.4851 16.275 26.627 16.275ZM19.1807 15.996C20.9905 15.996 22.4627 14.5237 22.4627 12.714C22.4627 10.9042 20.9905 9.43194 19.1807 9.43194C17.3709 9.43194 15.8987 10.9042 15.8987 12.714C15.8987 14.5237 17.3709 15.996 19.1807 15.996ZM19.1807 10.2531C20.5387 10.2531 21.6415 11.356 21.6415 12.714C21.6415 14.072 20.5387 15.1775 19.1807 15.1775C17.8227 15.1775 16.7172 14.072 16.7172 12.714C16.7172 11.356 17.8227 10.2531 19.1807 10.2531ZM21.8488 43.1478C22.8135 43.1478 23.9589 42.9804 24.6738 42.2655C25.3381 41.5985 25.8006 40.4079 26.0929 39.5256C26.5367 38.1969 26.8529 36.799 27.1532 35.4304C27.2223 35.1221 27.2888 34.8138 27.3632 34.5082C27.4907 33.9634 27.6688 33.4319 27.8894 32.919C28.676 31.0986 29.9197 29.7008 31.2272 28.2445C31.9686 27.418 32.7074 26.5915 33.3612 25.6933C33.8183 25.0661 34.2249 24.407 34.5703 23.7134C35.8433 21.1622 36.1808 18.3798 36.1223 15.5602C36.0479 12.0815 34.6102 9.09177 31.865 6.9445C29.4467 5.05501 26.4065 4.06907 23.345 4.06907C18.8458 4.06907 14.7586 6.219 12.8106 10.3621C11.4101 13.3438 11.1337 16.089 11.7051 19.3073C11.9336 20.6015 12.2738 21.8744 12.6113 23.142C13.0232 24.6887 13.4245 26.2274 13.6929 27.806C14.0836 30.118 14.1474 32.4301 13.7009 34.7368C13.3554 36.5306 13.7726 38.3483 14.8117 39.8445C15.9518 41.4842 17.735 42.611 19.7016 42.9405C20.4111 43.0601 21.1286 43.1478 21.8488 43.1478ZM23.345 4.89025C26.1859 4.89025 29.1171 5.83632 31.3601 7.59028C32.6995 8.64 33.704 9.91029 34.3657 11.3507C32.8642 11.9194 31.2538 12.0629 29.7284 11.4516C29.0906 11.1939 28.3092 10.7102 27.8628 10.1707C27.7193 9.99799 27.4615 9.97141 27.2861 10.1123C27.1107 10.2558 27.0841 10.5135 27.2276 10.6889C27.3738 10.8696 27.5811 11.0583 27.7591 11.2072C28.2136 11.5898 28.7318 11.9087 29.2792 12.1479C30.0845 12.496 30.9508 12.6661 31.8251 12.6661C32.8058 12.6661 33.7651 12.4562 34.6766 12.1081C35.0646 13.1897 35.2746 14.351 35.3012 15.5788C35.3596 18.3426 35.0168 21.0798 33.7253 23.5619C33.425 24.136 33.0795 24.6861 32.6995 25.2122C32.0617 26.0839 31.3388 26.8918 30.6186 27.697C29.25 29.2198 27.9585 30.6867 27.1373 32.5948C26.8954 33.1502 26.7041 33.7296 26.5633 34.3195C26.4915 34.6305 26.4224 34.9414 26.3533 35.255C25.9972 36.8734 25.2212 40.5567 24.0918 41.6862C23.5523 42.2256 22.5743 42.3266 21.8488 42.3266C21.1765 42.3266 20.5015 42.2442 19.8371 42.1326C18.0858 41.8376 16.4993 40.8358 15.4867 39.3768C14.5752 38.0666 14.2032 36.4642 14.5061 34.8936C14.9685 32.5045 14.9101 30.118 14.5088 27.7263C14.8596 27.9707 15.2343 28.1833 15.6223 28.3508C16.4275 28.7016 17.2939 28.8716 18.1708 28.8716C19.295 28.8716 20.3925 28.5953 21.4183 28.1515C21.6256 28.0611 21.7213 27.8193 21.6336 27.612C21.5432 27.4047 21.3014 27.309 21.0941 27.3994C19.4863 28.093 17.7297 28.3215 16.0741 27.6545C15.4655 27.41 14.724 26.9556 14.2669 26.4453C14.0198 25.2654 13.7142 24.1014 13.4033 22.9321C12.9568 21.2499 12.4997 19.5517 12.3216 17.8164C12.0612 15.2758 12.4651 13.0249 13.5547 10.7102C15.3565 6.87009 19.1807 4.89025 23.345 4.89025Z" fill="white"/>
</g>
<defs>
<clipPath id="clip0_352_11331">
<rect width="48" height="48" fill="white" transform="translate(0.213867)"/>
</clipPath>
</defs>
</svg>
