<svg width="48" height="48" viewBox="0 0 48 48" fill="none" xmlns="http://www.w3.org/2000/svg">
<path d="M15.3898 10.2725L15.0373 9.85999H13.7848L8.22729 16.46H20.5948L15.3898 10.2725Z" fill="white"/>
<path d="M7.82227 41C7.82321 42.1931 8.29762 43.3372 9.14133 44.1809C9.98504 45.0246 11.1291 45.499 12.3223 45.5H21.4573V17.96H7.82227V41Z" fill="white"/>
<path d="M22.9573 17.96V45.5H34.8223C36.0155 45.499 37.1595 45.0246 38.0032 44.1809C38.8469 43.3372 39.3213 42.1931 39.3223 41V17.96H22.9573ZM33.7948 33.9275C32.888 34.4375 31.8432 34.6475 30.8098 34.5274C29.771 35.6524 28.5391 36.5821 27.1723 37.2724C26.9959 37.3572 26.7933 37.3697 26.6079 37.3072C26.4224 37.2447 26.2687 37.1122 26.1796 36.9379C26.0905 36.7637 26.0731 36.5615 26.1311 36.3745C26.189 36.1876 26.3178 36.0307 26.4898 35.9374C27.6699 35.3398 28.738 34.5431 29.6473 33.5825C29.3024 32.6706 29.1601 31.6945 29.2304 30.7221C29.3007 29.7497 29.5818 28.8042 30.0543 27.9514C30.5267 27.0986 31.1792 26.3589 31.9663 25.7836C32.7534 25.2083 33.6564 24.8112 34.6124 24.62C34.7849 24.5839 34.9647 24.61 35.1198 24.6937C35.2749 24.7774 35.3953 24.9134 35.4598 25.0775C36.8998 28.73 36.2023 32.45 33.7948 33.9275Z" fill="white"/>
<path d="M31.1022 29.1425C30.7036 30.0923 30.5966 31.1392 30.7947 32.15C31.3428 31.3513 31.7888 30.4871 32.1222 29.5775C32.1559 29.4846 32.2076 29.3992 32.2744 29.3262C32.3411 29.2533 32.4217 29.1943 32.5113 29.1526C32.601 29.1108 32.698 29.0872 32.7967 29.0831C32.8955 29.0789 32.9942 29.0943 33.087 29.1284C33.1798 29.1625 33.265 29.2145 33.3377 29.2816C33.4103 29.3487 33.469 29.4294 33.5104 29.5192C33.5517 29.609 33.575 29.7061 33.5787 29.805C33.5824 29.9038 33.5666 30.0023 33.5322 30.095C33.1595 31.1255 32.6554 32.1036 32.0322 33.005C32.3802 32.9509 32.7141 32.8285 33.0147 32.645C34.4097 31.79 35.2572 29.315 34.2897 26.27C33.5884 26.5019 32.943 26.877 32.3943 27.3715C31.8456 27.866 31.4056 28.4691 31.1022 29.1425Z" fill="white"/>
<path d="M33.3597 9.85999H17.0022L22.5597 16.46H38.9172L33.3597 9.85999Z" fill="white"/>
<path d="M32.5046 6.5C32.5048 6.106 32.4272 5.71585 32.2765 5.35182C32.1258 4.98779 31.9048 4.65703 31.6262 4.37843C31.3476 4.09983 31.0169 3.87886 30.6528 3.72813C30.2888 3.57741 29.8986 3.49989 29.5046 3.5H17.6396C17.2457 3.49989 16.8555 3.57741 16.4915 3.72813C16.1274 3.87886 15.7967 4.09983 15.5181 4.37843C15.2395 4.65703 15.0185 4.98779 14.8678 5.35182C14.7171 5.71585 14.6395 6.106 14.6396 6.5V8.36H32.5046V6.5Z" fill="white"/>
</svg>
