<svg width="79" height="51" viewBox="0 0 79 51" fill="none" xmlns="http://www.w3.org/2000/svg">
<g clip-path="url(#clip0_248_8643)">
<path d="M33 22V21.9217C33 9.78648 27.2134 0 20 0C12.8659 0 7 9.78648 7 21.9217V22H33ZM28.2439 18.4769C27.8476 16.8327 27.5305 15.2669 27.0549 13.7794C26.9756 13.5445 26.8963 13.3096 26.8171 12.9964L28.1646 8.84698L28.2439 8.92527C28.3232 9.08185 28.4024 9.31673 28.4817 9.47331C28.6402 9.94306 28.7988 10.3345 28.878 10.726C29.1159 11.5872 29.1951 12.4484 29.2744 13.3096C29.2744 15.1103 28.9573 16.911 28.2439 18.4769ZM27.372 7.43772L26.1037 11.274C26.0244 11.0391 25.9451 10.8043 25.7866 10.5694L25.5488 10.0214L25.4695 9.78648L25.311 9.5516C25.311 9.47331 25.2317 9.47331 25.2317 9.39502L26.3415 6.02847C26.8171 6.49822 27.1341 6.96797 27.372 7.43772ZM24.5976 4.22776L23.8049 6.7331C23.5671 6.41993 23.3293 6.02847 23.0915 5.7153C22.2195 4.54093 21.1098 3.44484 19.7622 2.34875C21.5061 2.34875 23.25 3.13167 24.5976 4.22776Z" fill="white"/>
<path d="M45.0793 22H71V21.9217C71 9.78648 65.2134 0 58 0C50.8659 0 45 9.78648 45 21.9217C45.0793 21.9217 45.0793 22 45.0793 22ZM66.561 18.7117C66.1646 17.0676 65.8476 15.5018 65.3719 14.0142C65.2927 13.7794 65.2134 13.5445 65.1341 13.2313L66.4817 9.08185L66.561 9.16014C66.6402 9.31673 66.7195 9.5516 66.7988 9.70819C66.9573 10.1779 67.1159 10.5694 67.1951 10.9609C67.4329 11.8221 67.5122 12.6833 67.5915 13.5445C67.5915 15.4235 67.2744 17.1459 66.561 18.7117ZM64.5 11.5089C64.4207 11.274 64.3415 11.0391 64.1829 10.8043L63.9451 10.2562L63.8659 10.0214L63.7073 9.78648C63.7073 9.70819 63.628 9.70819 63.628 9.62989L64.7378 6.26335C65.0549 6.7331 65.372 7.20285 65.689 7.6726L64.5 11.5089ZM62.9146 4.46263L62.122 6.96797C61.8841 6.6548 61.6463 6.26335 61.4085 5.95018C60.5366 4.7758 59.4268 3.67972 58.0793 2.58363C59.8232 2.58363 61.5671 3.36655 62.9146 4.46263Z" fill="white"/>
<path d="M75.8775 26H70.4911H45.5109H32.6304H7.6502H3.12253C1.40514 26 0 27.4196 0 29.1546V35.5426C0 37.2776 1.40514 38.6972 3.12253 38.6972H7.88439L8.82115 40.8265L9.75791 42.9558L11.9437 48.082C12.7243 49.817 14.4417 51 16.3152 51H25.6047C27.4783 51 29.1176 49.7382 29.664 48.0032L31.1472 43.0347L31.7717 40.9054L32.3962 38.776H46.6038L47.2283 40.9054L47.8528 43.0347L49.336 48.0032C49.8824 49.817 51.5217 51 53.3953 51H62.6848C64.5583 51 66.2757 49.8959 67.0563 48.082L69.2421 42.9558L70.1789 40.8265L71.1156 38.6972H75.8775C77.5949 38.6972 79 37.2776 79 35.5426V29.1546C79 27.3407 77.5949 26 75.8775 26Z" fill="white"/>
</g>
<defs>
<clipPath id="clip0_248_8643">
<rect width="79" height="51" fill="white"/>
</clipPath>
</defs>
</svg>
