<svg width="1801" height="1094" viewBox="0 0 1801 1094" fill="none" xmlns="http://www.w3.org/2000/svg">
<rect opacity="0.1" x="0.0205078" y="18.0239" width="1800" height="1075" rx="20" fill="#A6AE9D"/>
<path opacity="0.2" d="M1153.02 1093.01C1147.99 1004.39 1102.96 770.909 964.72 768.415C776.95 765.042 801.224 989.831 1056.11 916.029C1311 842.228 1259.42 386.089 937.818 400.402C616.217 414.714 821.117 694.527 989.536 647.814C1155.81 601.682 1347.22 278.204 707.143 19.7097" stroke="#F5A228" stroke-width="2" stroke-miterlimit="10"/>
<g opacity="0.4">
<path d="M50.4141 186.284L58.0556 193.926" stroke="#313131" stroke-width="1.6547" stroke-miterlimit="10" stroke-linecap="round" stroke-linejoin="round"/>
<path d="M24.1777 160.034L38.2238 174.092" stroke="#313131" stroke-width="1.6547" stroke-miterlimit="10" stroke-linecap="round" stroke-linejoin="round"/>
<path d="M47.9912 161.735L100.902 214.646" stroke="#313131" stroke-width="1.6547" stroke-miterlimit="10" stroke-linecap="round" stroke-linejoin="round"/>
<path d="M21.0068 134.752L31.7283 145.486" stroke="#313131" stroke-width="1.6547" stroke-miterlimit="10" stroke-linecap="round" stroke-linejoin="round"/>
<path d="M86.0186 177.649L132.577 224.207" stroke="#F5A228" stroke-width="1.6547" stroke-miterlimit="10" stroke-linecap="round" stroke-linejoin="round"/>
<path d="M15.7622 107.406L65.4132 157.044" stroke="#F5A228" stroke-width="1.6547" stroke-miterlimit="10" stroke-linecap="round" stroke-linejoin="round"/>
<path d="M54.6919 124.211L136.868 206.387" stroke="#313131" stroke-width="1.6547" stroke-miterlimit="10" stroke-linecap="round" stroke-linejoin="round"/>
<path d="M20.7104 90.2285L38.107 107.625" stroke="#313131" stroke-width="1.6547" stroke-miterlimit="10" stroke-linecap="round" stroke-linejoin="round"/>
<path d="M122.538 169.942L142.293 189.697" stroke="#313131" stroke-width="1.6547" stroke-miterlimit="10" stroke-linecap="round" stroke-linejoin="round"/>
<path d="M1.02051 48.4259L101.766 149.171" stroke="#313131" stroke-width="1.6547" stroke-miterlimit="10" stroke-linecap="round" stroke-linejoin="round"/>
<path d="M81.8306 107.122L180.243 205.534" stroke="#F5A228" stroke-width="1.6547" stroke-miterlimit="10" stroke-linecap="round" stroke-linejoin="round"/>
<path d="M38.3525 63.6454L61.2257 86.5186" stroke="#F5A228" stroke-width="1.6547" stroke-miterlimit="10" stroke-linecap="round" stroke-linejoin="round"/>
<path d="M100.928 104.106L164.509 167.675" stroke="#313131" stroke-width="1.6547" stroke-miterlimit="10" stroke-linecap="round" stroke-linejoin="round"/>
<path d="M36.02 39.1991L83.0035 86.1826" stroke="#313131" stroke-width="1.6547" stroke-miterlimit="10" stroke-linecap="round" stroke-linejoin="round"/>
<path d="M153.363 134.43L186.571 167.638" stroke="#F5A228" stroke-width="1.6547" stroke-miterlimit="10" stroke-linecap="round" stroke-linejoin="round"/>
<path d="M64.7305 45.7958L129.239 110.305" stroke="#F5A228" stroke-width="1.6547" stroke-miterlimit="10" stroke-linecap="round" stroke-linejoin="round"/>
<path d="M121.198 80.1509L166.055 125.008" stroke="#313131" stroke-width="1.6547" stroke-miterlimit="10" stroke-linecap="round" stroke-linejoin="round"/>
<path d="M70.0522 29.0059L103.608 62.5489" stroke="#313131" stroke-width="1.6547" stroke-miterlimit="10" stroke-linecap="round" stroke-linejoin="round"/>
<path d="M161.069 97.9099L178.517 115.358" stroke="#F5A228" stroke-width="1.6547" stroke-miterlimit="10" stroke-linecap="round" stroke-linejoin="round"/>
<path d="M96.8945 33.735L141.133 77.9609" stroke="#F5A228" stroke-width="1.6547" stroke-miterlimit="10" stroke-linecap="round" stroke-linejoin="round"/>
<path d="M151.997 66.7235L162.718 77.4449" stroke="#313131" stroke-width="1.6547" stroke-miterlimit="10" stroke-linecap="round" stroke-linejoin="round"/>
<path d="M133.169 47.8974L140.566 55.2941" stroke="#313131" stroke-width="1.6547" stroke-miterlimit="10" stroke-linecap="round" stroke-linejoin="round"/>
</g>
</svg>
