<svg width="43" height="42" viewBox="0 0 43 42" fill="none" xmlns="http://www.w3.org/2000/svg">
<circle cx="21.0205" cy="21" r="20.5" stroke="#738065"/>
<g clip-path="url(#clip0_21_836)">
<path d="M22.6143 32.9531H18.7709C18.1289 32.9531 17.6067 32.4309 17.6067 31.7889V23.12H15.3644C14.7224 23.12 14.2002 22.5976 14.2002 21.9558V18.2412C14.2002 17.5992 14.7224 17.077 15.3644 17.077H17.6067V15.2168C17.6067 13.3724 18.1859 11.8032 19.2814 10.6791C20.3818 9.54987 21.9197 8.95312 23.7288 8.95312L26.66 8.95789C27.3008 8.95898 27.8221 9.4812 27.8221 10.1221V13.571C27.8221 14.213 27.3001 14.7352 26.6583 14.7352L24.6848 14.736C24.0829 14.736 23.9297 14.8566 23.8969 14.8936C23.8429 14.955 23.7786 15.1284 23.7786 15.6072V17.0768H26.51C26.7156 17.0768 26.9149 17.1275 27.0861 17.2231C27.4554 17.4294 27.685 17.8196 27.685 18.2413L27.6835 21.956C27.6835 22.5976 27.1613 23.1198 26.5193 23.1198H23.7786V31.7889C23.7786 32.4309 23.2562 32.9531 22.6143 32.9531ZM19.0137 31.5461H22.3715V22.4901C22.3715 22.0615 22.7203 21.7128 23.1487 21.7128H26.2766L26.2778 18.4839H23.1486C22.7201 18.4839 22.3715 18.1353 22.3715 17.7067V15.6072C22.3715 15.0575 22.4273 14.4324 22.8422 13.9625C23.3436 13.3945 24.1337 13.329 24.6844 13.329L26.4152 13.3282V10.3645L23.7277 10.3601C20.8204 10.3601 19.0137 12.2212 19.0137 15.2168V17.7067C19.0137 18.1351 18.665 18.4839 18.2366 18.4839H15.6072V21.7128H18.2366C18.665 21.7128 19.0137 22.0615 19.0137 22.4901V31.5461Z" fill="#738065"/>
</g>
<defs>
<clipPath id="clip0_21_836">
<rect width="23.9531" height="24" fill="white" transform="translate(9.02051 9)"/>
</clipPath>
</defs>
</svg>
