<svg width="90" height="53" viewBox="0 0 90 53" fill="none" xmlns="http://www.w3.org/2000/svg">
<path fill-rule="evenodd" clip-rule="evenodd" d="M76.6008 23.9083C75.1103 24.0913 73.6567 23.0347 73.4613 21.4436C73.2775 19.946 74.3276 18.487 75.9112 18.2926C77.4017 18.1096 78.8553 19.1662 79.0507 20.7573C79.246 22.3484 78.1844 23.7138 76.6008 23.9083ZM71.6132 34.1163C71.4499 34.3264 71.1819 34.4543 70.9025 34.4886C70.623 34.5229 70.4252 34.4522 70.1227 34.2993C63.8669 29.5571 62.27 23.4827 65.5517 17.0944L65.6333 16.9894C65.7737 16.5921 66.0302 16.3706 66.4959 16.3134C67.0549 16.2448 67.5781 16.6556 67.6471 17.2171C67.693 17.5915 67.5297 17.8016 67.3779 18.1053C65.3925 21.9593 64.4869 27.6758 71.3592 32.8174C71.8594 33.041 71.9399 33.6962 71.6132 34.1163ZM87.0432 24.2412C86.1129 23.5954 85.6483 22.8924 85.5679 22.2372C85.4874 21.5821 85.7566 20.694 86.3984 19.7601C85.0495 18.7856 81.212 16.0266 75.9071 13.6378C70.6021 11.2489 63.8296 9.2303 56.3082 9.58377C55.563 9.67527 54.8063 9.67318 54.061 9.76468C50.9331 7.39356 46.8506 4.94962 43.7306 4.9527C41.8741 8.31586 41.9164 10.9708 42.0888 12.3748C41.6345 12.5256 41.1802 12.6763 40.7374 12.9207C26.7006 17.9695 18.1998 26.5187 18.1998 26.5187C15.433 24.0083 9.02652 18.8095 1.64671 18.0055C2.3284 21.247 4.08076 24.7371 5.3226 27.1498C6.19304 28.848 6.56444 29.5625 6.67936 30.4984C6.7713 31.2472 6.64123 32.4982 6.20749 34.3566C5.58622 36.9981 4.73024 40.8084 4.84151 44.025C11.8076 41.4595 16.812 35.2397 18.9123 32.3216C20.4475 33.2732 22.2737 34.2841 24.3909 35.3542C23.5512 36.2173 22.0583 37.9208 22.6505 38.8931C24.3339 41.8216 31.6127 40.2629 34.5133 39.2417C36.282 39.7846 38.214 40.1174 40.1461 40.4502C40.9258 40.6395 41.6009 40.7466 42.3691 40.8423C41.6892 43.776 41.3461 47.1433 42.2293 48.1749C42.3339 48.2571 42.4501 48.4328 42.9159 48.3757C44.0337 48.2384 50.4868 46.116 56.793 41.2564C73.8634 39.3504 83.0417 29.3879 83.0417 29.3879C85.0476 27.2415 86.3427 25.4673 87.0432 24.2412Z" fill="white"/>
<path fill-rule="evenodd" clip-rule="evenodd" d="M75.9605 20.138C76.7825 20.0371 77.5312 20.622 77.6321 21.444C77.7331 22.2661 77.1481 23.0147 76.3261 23.1156C75.5041 23.2166 74.7554 22.6317 74.6545 21.8096C74.5535 20.9876 75.1385 20.2389 75.9605 20.138Z" fill="white"/>
</svg>
