<svg width="49" height="48" viewBox="0 0 49 48" fill="none" xmlns="http://www.w3.org/2000/svg">
<path fill-rule="evenodd" clip-rule="evenodd" d="M24.4997 3.69482C13.1659 3.69482 3.94482 12.9159 3.94482 24.2498C3.94488 35.5844 13.1659 44.8054 24.4996 44.8054C35.8343 44.8054 45.0553 35.5844 45.0553 24.2498C45.0554 12.9159 35.8343 3.69491 24.4997 3.69482ZM23.6878 6.01323C28.2303 5.81024 32.651 7.28415 36.1341 10.1651C36.3172 10.3168 36.3627 10.5729 36.2556 10.7753L36.2549 10.7767L36.2526 10.7808L36.249 10.7874L36.2487 10.7879C36.2271 10.8262 36.2 10.8622 36.1674 10.8948L33.3893 13.6635L30.7053 16.3569L28.273 18.7892L27.4757 19.5771L25.0143 22.0413C25.0027 22.1819 24.9934 22.3038 24.9929 22.3999V22.4067V22.4161L24.993 22.4444L24.9929 22.4612L24.993 22.6493L24.993 22.7536L24.993 22.76V25.4547L28.4734 21.9742L30.6616 19.7766L31.4221 19.0255L37.8555 12.5818C37.9788 12.4585 38.1512 12.4142 38.3098 12.4487L38.3104 12.4488L38.3214 12.4513L38.322 12.4515L38.3328 12.4543L38.3335 12.4545L38.3443 12.4575L38.345 12.4577L38.3557 12.461L38.3564 12.4612C38.443 12.4891 38.5228 12.541 38.5851 12.6162C41.467 16.1 42.9426 20.5209 42.7404 25.0625C42.5367 29.6331 40.6448 33.9298 37.4127 37.1619C34.1806 40.3949 29.8831 42.2867 25.3124 42.4897C25.0375 42.5025 24.7626 42.5085 24.4894 42.5085C20.2382 42.5085 16.1393 41.0423 12.8661 38.3352C12.7579 38.2456 12.6978 38.1195 12.6887 37.9895L12.688 37.9777C12.6817 37.8438 12.7299 37.7079 12.8327 37.6056L16.2379 34.2098L18.158 32.2897C18.19 32.2448 18.2293 32.2053 18.2745 32.1732L21.0098 29.4378C21.0427 29.3912 21.0828 29.3516 21.1278 29.3198L23.4895 26.9582C23.5211 26.9135 23.5603 26.8738 23.6065 26.8412L24.0064 26.4413V23.2395C23.9506 23.2368 23.8911 23.2333 23.8282 23.2288L21.839 25.2203C21.8198 25.2434 21.7987 25.2645 21.7759 25.2834L19.4305 27.6316L19.4157 27.6463L19.2738 27.7884L19.2627 27.7996L19.1094 27.9434L17.8231 29.2297L16.2062 30.856L11.1439 35.9184C11.1102 35.9521 11.0727 35.9798 11.0328 36.0017L11.03 36.0032L11.028 36.0043L11.0246 36.0061C10.964 36.038 10.8982 36.0561 10.8318 36.0609L10.8307 36.061L10.8266 36.0613L10.8248 36.0614L10.8189 36.0617L10.8162 36.0618L10.813 36.0619L10.811 36.062L10.8071 36.0621L10.8058 36.0621L10.8012 36.0622H10.8005L10.7953 36.0622L10.7894 36.0622L10.7887 36.0622L10.7835 36.0621L10.782 36.0621L10.7776 36.0619L10.7753 36.0619L10.7717 36.0617L10.7687 36.0615L10.7658 36.0614L10.762 36.0611L10.7599 36.061L10.7554 36.0606L10.754 36.0605L10.7488 36.0601L10.7481 36.06L10.7421 36.0594L10.7364 36.0587L10.7356 36.0586L10.7305 36.058L10.7289 36.0578L10.7246 36.0572L10.7224 36.0569L10.7188 36.0563L10.7158 36.0559L10.7129 36.0554L10.7092 36.0547L10.707 36.0544L10.7027 36.0536L10.7012 36.0532L10.6962 36.0523L10.6954 36.0521L10.6896 36.0509L10.6838 36.0496L10.6832 36.0494L10.678 36.0482L10.6767 36.0479L10.6722 36.0468L10.6665 36.0452L10.6638 36.0445L10.6607 36.0437L10.6574 36.0427L10.655 36.042L10.6542 36.0418L10.6493 36.0403L10.6446 36.0389L10.6436 36.0385L10.6383 36.0368L10.6379 36.0366L10.6322 36.0347L10.6319 36.0346L10.6266 36.0327L10.6256 36.0324L10.621 36.0307L10.6194 36.0301L10.6154 36.0285L10.6131 36.0276L10.6098 36.0263L10.6069 36.0251L10.5946 36.0198L10.5932 36.0192L10.5885 36.0171C10.5371 35.9935 10.4889 35.9606 10.4467 35.9184C10.4316 35.9032 10.4176 35.8873 10.4048 35.8708C7.52977 32.3887 6.05783 27.9732 6.25972 23.4344C6.46357 18.8612 8.35536 14.5654 11.5883 11.3376C14.8214 8.10885 19.1179 6.21791 23.6878 6.01323Z" fill="white"/>
<path fill-rule="evenodd" clip-rule="evenodd" d="M24.4997 8.75806C23.9533 9.37041 22.9255 10.7253 22.9255 12.2574C22.9255 13.7973 23.9532 15.1478 24.4996 15.7576C25.0452 15.1461 26.0737 13.7904 26.0737 12.2574C26.0738 10.7305 25.046 9.37216 24.4997 8.75806Z" fill="white"/>
<path fill-rule="evenodd" clip-rule="evenodd" d="M24.8328 7.6833C24.9236 7.76635 27.0604 9.749 27.0604 12.2574C27.0604 14.4041 25.5079 16.1542 24.9929 16.6754V18.8139C25.1807 18.513 25.4033 18.2249 25.667 17.9612C26.7357 16.8924 28.2056 16.4988 29.307 16.36L30.0073 15.6599L32.6913 12.9656L35.0795 10.5863C28.2061 5.24647 18.4999 5.82962 12.2855 12.0356C6.17504 18.1368 5.58267 28.0451 10.8371 34.8302L15.5074 30.16L17.1251 28.5327L18.4166 27.2412C18.42 27.237 18.4243 27.2336 18.4277 27.2302L18.5004 27.1619C18.1881 26.2636 18.0392 25.3265 18.0568 24.3715C18.062 24.1068 18.2761 23.8927 18.5407 23.8876C19.4971 23.8691 20.4341 24.0188 21.3321 24.3317L22.6079 23.0543C21.934 22.9071 21.1727 22.6502 20.4814 22.2039C20.1757 22.012 19.911 21.7722 19.7157 21.5847L19.708 21.577C18.6333 20.503 18.2444 18.9974 18.1082 17.9226C18.0586 17.5457 18.038 17.1604 18.0483 16.781C18.0552 16.5189 18.2658 16.3083 18.5279 16.3014C18.9072 16.2911 19.2918 16.3117 19.672 16.3614C20.7418 16.4966 22.2473 16.8838 23.3238 17.9612C23.5585 18.1949 23.7665 18.4571 23.9447 18.7388C23.9657 18.7711 23.9863 18.8036 24.0064 18.8362V16.6745C23.4905 16.1523 21.939 14.403 21.939 12.2574C21.939 9.73867 24.0774 7.76554 24.1682 7.68247C24.3566 7.51112 24.6444 7.5112 24.8328 7.6833Z" fill="white"/>
<path fill-rule="evenodd" clip-rule="evenodd" d="M38.164 13.6699L32.1175 19.7246L31.3578 20.4756L29.1714 22.6714L27.4219 24.4209C28.9089 23.8258 30.3859 23.8842 30.4731 23.8885C30.7275 23.9004 30.9313 24.1043 30.9424 24.3595C30.9475 24.4819 31.0529 27.3835 29.2835 29.1631C27.9376 30.5165 25.932 30.7754 24.9929 30.819V33.9885C25.1802 33.6875 25.4026 33.3986 25.667 33.1343C27.4466 31.3547 30.3498 31.4694 30.4731 31.4754C30.7275 31.4866 30.9313 31.6912 30.9424 31.9465C30.9475 32.0689 31.0529 34.9705 29.2835 36.7501C27.9376 38.1035 25.932 38.3617 24.9929 38.4052V40.4523C24.9929 40.7247 24.7728 40.9457 24.4996 40.9456C24.2272 40.9456 24.0063 40.7247 24.0063 40.4524V38.4134C23.0697 38.367 21.0696 38.1032 19.7173 36.751C18.809 35.8425 18.3922 34.6258 18.2026 33.6402L16.9349 34.9079L13.9194 37.915C17.0567 40.3511 20.7821 41.5555 24.4945 41.5563C28.9248 41.5562 33.3361 39.8426 36.7146 36.4649C42.9242 30.2554 43.508 20.549 38.164 13.6699Z" fill="white"/>
<path fill-rule="evenodd" clip-rule="evenodd" d="M19.0863 17.7967C19.2036 18.7181 19.5273 19.9985 20.4018 20.8754C20.573 21.039 20.7786 21.2257 21.0115 21.3722C21.8194 21.8934 22.762 22.1111 23.4604 22.2006L23.94 21.7205C23.8514 21.0248 23.6354 20.0745 23.1131 19.2705C22.971 19.0444 22.8083 18.8406 22.6267 18.6582C21.7472 17.7786 20.466 17.4558 19.5453 17.3393C19.3775 17.3179 19.2087 17.3025 19.04 17.2939C19.0495 17.4617 19.064 17.6296 19.0863 17.7967Z" fill="white"/>
<path fill-rule="evenodd" clip-rule="evenodd" d="M26.364 18.6582C25.8965 19.1258 25.5854 19.7011 25.3792 20.2795L26.7795 18.8775L27.5768 18.0896L27.9977 17.6688C27.4153 17.8752 26.8353 18.1875 26.364 18.6582Z" fill="white"/>
<path fill-rule="evenodd" clip-rule="evenodd" d="M26.364 33.8322C25.2764 34.9197 25.0469 36.5984 25.0015 37.4154C25.8203 37.3683 27.5073 37.1371 28.5847 36.0537C29.6612 34.9711 29.8967 33.2892 29.9456 32.4705C29.1269 32.5167 27.4465 32.7497 26.364 33.8322Z" fill="white"/>
<path fill-rule="evenodd" clip-rule="evenodd" d="M19.3385 32.5043L19.0718 32.771C19.1621 33.6682 19.4588 35.0981 20.4144 36.053C21.497 37.1355 23.1773 37.3735 23.9968 37.4224C23.948 36.5633 23.7083 34.9139 22.636 33.8417C21.6697 32.8674 20.2309 32.5832 19.3385 32.5043Z" fill="white"/>
<path fill-rule="evenodd" clip-rule="evenodd" d="M21.5336 30.3093L20.2141 31.6288C21.2003 31.811 22.4206 32.2237 23.335 33.1454C23.5981 33.4086 23.8197 33.6972 24.0064 33.9984V30.8175C23.4422 30.7904 22.4928 30.6847 21.5336 30.3093Z" fill="white"/>
<path fill-rule="evenodd" clip-rule="evenodd" d="M19.051 24.8818C19.0766 25.3888 19.1562 25.8886 19.2894 26.3768L20.5448 25.1198C20.057 24.9868 19.5576 24.9074 19.051 24.8818Z" fill="white"/>
<path fill-rule="evenodd" clip-rule="evenodd" d="M23.7016 28.141L22.3079 29.5348C22.9655 29.7362 23.5886 29.8064 23.9968 29.8293C23.9697 29.4017 23.8962 28.7847 23.7016 28.141Z" fill="white"/>
<path fill-rule="evenodd" clip-rule="evenodd" d="M26.3642 26.2451C25.2817 27.3284 25.0496 29.0096 25.0024 29.8284C25.8221 29.7821 27.5075 29.55 28.5849 28.4675C29.6666 27.379 29.8994 25.7013 29.9474 24.8834C29.1287 24.9305 27.4475 25.1626 26.3642 26.2451Z" fill="white"/>
</svg>
