<svg width="43" height="42" viewBox="0 0 43 42" fill="none" xmlns="http://www.w3.org/2000/svg">
<circle cx="21.0205" cy="21" r="20.5" stroke="#738065"/>
<g clip-path="url(#clip0_21_854)">
<path d="M12.2605 9.19922C11.3805 9.19922 10.5805 9.51923 9.98051 10.1192C9.34052 10.7592 9.02051 11.5592 9.02051 12.3992C9.02051 13.2792 9.38051 14.0792 9.98051 14.6792C10.5805 15.2792 11.4205 15.6392 12.2205 15.5992C12.2205 15.5992 12.2605 15.5992 12.3005 15.5992C13.1006 15.5992 13.8605 15.2792 14.4605 14.6792C15.0605 14.0792 15.4205 13.2792 15.4205 12.3992C15.4605 11.5592 15.1005 10.7592 14.5005 10.1592C13.9005 9.51919 13.1005 9.19922 12.2605 9.19922ZM13.9005 14.1192C13.4605 14.5592 12.8605 14.8392 12.2205 14.7992C11.6205 14.7992 10.9805 14.5592 10.5405 14.1192C10.0605 13.6792 9.82052 13.0392 9.82052 12.3992C9.82052 11.7592 10.0605 11.1593 10.5405 10.6793C10.9805 10.2392 11.5805 9.99923 12.2605 9.99923C12.8605 9.99923 13.4605 10.2392 13.9005 10.6793C14.3805 11.1593 14.6205 11.7592 14.6205 12.3992C14.6205 13.0392 14.3805 13.6792 13.9005 14.1192Z" fill="#738065"/>
<path d="M13.8204 16.3984H10.5804C9.94044 16.3984 9.42041 16.9184 9.42041 17.5984V31.5985C9.42041 32.2384 9.98043 32.7985 10.6204 32.7985H13.8204C14.4604 32.7985 15.0204 32.2384 15.0204 31.6384V17.5984C15.0204 16.9584 14.4604 16.3984 13.8204 16.3984ZM14.2204 31.6384C14.2204 31.8385 14.0204 31.9984 13.8204 31.9984H10.6204C10.4204 31.9984 10.2204 31.7984 10.2204 31.5985V17.5984C10.2204 17.3984 10.3804 17.1985 10.5804 17.1985H13.8204C14.0204 17.1985 14.2204 17.3985 14.2204 17.5984V31.6384Z" fill="#738065"/>
<path d="M27.4205 16H26.5805C25.0205 16 23.5405 16.68 22.5805 17.76V17.2C22.5805 16.8 22.1805 16.4 21.7805 16.4H17.7805C17.4205 16.4 16.9805 16.72 16.9805 17.16V32.08C16.9805 32.52 17.4205 32.8 17.7805 32.8H22.1805C22.5405 32.8 22.9805 32.52 22.9805 32.08V23.44C22.9805 22.12 23.9405 21.0799 25.1805 21.0799C25.8205 21.0799 26.4205 21.3199 26.8605 21.76C27.2605 22.12 27.4205 22.68 27.4205 23.4V32C27.4205 32.4 27.8205 32.8 28.2205 32.8H32.2205C32.6205 32.8 33.0205 32.4 33.0205 32V21.68C33.0205 18.48 30.5805 16 27.4205 16ZM32.2205 31.96L32.1805 32H28.2605L28.2205 23.4C28.2205 22.44 27.9805 21.72 27.4605 21.2C26.8605 20.6 26.0605 20.28 25.2205 20.28C23.5405 20.32 22.2205 21.68 22.2205 23.44V32H17.8205V17.2H21.7805L21.8205 17.24V19.76L22.9005 18.68L22.9404 18.64C23.7405 17.52 25.1404 16.8 26.6205 16.8H27.4605C30.1404 16.8 32.2205 18.96 32.2205 21.68V31.96Z" fill="#738065"/>
</g>
<defs>
<clipPath id="clip0_21_854">
<rect width="24" height="24" fill="white" transform="translate(9.02051 9)"/>
</clipPath>
</defs>
</svg>
