<svg width="43" height="42" viewBox="0 0 43 42" fill="none" xmlns="http://www.w3.org/2000/svg">
<circle cx="21.0205" cy="21" r="20.5" stroke="#738065"/>
<path fill-rule="evenodd" clip-rule="evenodd" d="M16.4855 10.066C17.6585 10.012 18.0325 10 21.0205 10C24.0085 10 24.3825 10.013 25.5545 10.066C26.7265 10.119 27.5265 10.306 28.2265 10.577C28.9595 10.854 29.6245 11.287 30.1745 11.847C30.7345 12.396 31.1665 13.06 31.4425 13.794C31.7145 14.494 31.9005 15.294 31.9545 16.464C32.0085 17.639 32.0205 18.013 32.0205 21C32.0205 23.988 32.0075 24.362 31.9545 25.535C31.9015 26.705 31.7145 27.505 31.4425 28.205C31.1665 28.9391 30.7338 29.6042 30.1745 30.154C29.6245 30.714 28.9595 31.146 28.2265 31.422C27.5265 31.694 26.7265 31.88 25.5565 31.934C24.3825 31.988 24.0085 32 21.0205 32C18.0325 32 17.6585 31.987 16.4855 31.934C15.3155 31.881 14.5155 31.694 13.8155 31.422C13.0814 31.146 12.4163 30.7133 11.8665 30.154C11.3069 29.6047 10.8738 28.9399 10.5975 28.206C10.3265 27.506 10.1405 26.706 10.0865 25.536C10.0325 24.361 10.0205 23.987 10.0205 21C10.0205 18.012 10.0335 17.638 10.0865 16.466C10.1395 15.294 10.3265 14.494 10.5975 13.794C10.8742 13.0601 11.3076 12.3953 11.8675 11.846C12.4165 11.2865 13.081 10.8534 13.8145 10.577C14.5145 10.306 15.3145 10.12 16.4845 10.066H16.4855ZM25.4655 12.046C24.3055 11.993 23.9575 11.982 21.0205 11.982C18.0835 11.982 17.7355 11.993 16.5755 12.046C15.5025 12.095 14.9205 12.274 14.5325 12.425C14.0195 12.625 13.6525 12.862 13.2675 13.247C12.9026 13.6021 12.6217 14.0343 12.4455 14.512C12.2945 14.9 12.1155 15.482 12.0665 16.555C12.0135 17.715 12.0025 18.063 12.0025 21C12.0025 23.937 12.0135 24.285 12.0665 25.445C12.1155 26.518 12.2945 27.1 12.4455 27.488C12.6215 27.965 12.9025 28.398 13.2675 28.753C13.6225 29.118 14.0555 29.399 14.5325 29.575C14.9205 29.726 15.5025 29.905 16.5755 29.954C17.7355 30.007 18.0825 30.018 21.0205 30.018C23.9585 30.018 24.3055 30.007 25.4655 29.954C26.5385 29.905 27.1205 29.726 27.5085 29.575C28.0215 29.375 28.3885 29.138 28.7735 28.753C29.1385 28.398 29.4195 27.965 29.5955 27.488C29.7465 27.1 29.9255 26.518 29.9745 25.445C30.0275 24.285 30.0385 23.937 30.0385 21C30.0385 18.063 30.0275 17.715 29.9745 16.555C29.9255 15.482 29.7465 14.9 29.5955 14.512C29.3955 13.999 29.1585 13.632 28.7735 13.247C28.4184 12.8821 27.9862 12.6012 27.5085 12.425C27.1205 12.274 26.5385 12.095 25.4655 12.046ZM19.6155 24.391C20.4002 24.7176 21.2739 24.7617 22.0874 24.5157C22.901 24.2697 23.6039 23.7489 24.0761 23.0422C24.5483 22.3356 24.7606 21.4869 24.6766 20.6411C24.5925 19.7953 24.2175 19.005 23.6155 18.405C23.2317 18.0215 22.7677 17.7278 22.2568 17.5451C21.746 17.3625 21.2009 17.2954 20.661 17.3486C20.1211 17.4019 19.5997 17.5742 19.1343 17.8531C18.669 18.1321 18.2713 18.5107 17.9698 18.9619C17.6684 19.413 17.4707 19.9253 17.391 20.462C17.3114 20.9986 17.3517 21.5463 17.509 22.0655C17.6664 22.5847 17.937 23.0626 18.3012 23.4647C18.6655 23.8668 19.1143 24.1832 19.6155 24.391ZM17.0225 17.002C17.5475 16.477 18.1708 16.0605 18.8568 15.7764C19.5428 15.4922 20.278 15.346 21.0205 15.346C21.763 15.346 22.4982 15.4922 23.1842 15.7764C23.8702 16.0605 24.4935 16.477 25.0185 17.002C25.5435 17.527 25.96 18.1503 26.2441 18.8363C26.5283 19.5223 26.6745 20.2575 26.6745 21C26.6745 21.7425 26.5283 22.4777 26.2441 23.1637C25.96 23.8497 25.5435 24.473 25.0185 24.998C23.9582 26.0583 22.52 26.654 21.0205 26.654C19.521 26.654 18.0828 26.0583 17.0225 24.998C15.9622 23.9377 15.3665 22.4995 15.3665 21C15.3665 19.5005 15.9622 18.0623 17.0225 17.002ZM27.9285 16.188C28.0586 16.0653 28.1628 15.9177 28.2348 15.754C28.3069 15.5903 28.3453 15.4138 28.3479 15.2349C28.3505 15.0561 28.3172 14.8785 28.25 14.7128C28.1828 14.5471 28.0829 14.3965 27.9565 14.27C27.83 14.1436 27.6794 14.0438 27.5137 13.9765C27.348 13.9093 27.1704 13.876 26.9916 13.8786C26.8127 13.8812 26.6362 13.9197 26.4725 13.9917C26.3088 14.0637 26.1612 14.1679 26.0385 14.298C25.7998 14.551 25.6691 14.8871 25.6742 15.2349C25.6793 15.5827 25.8197 15.9149 26.0657 16.1608C26.3116 16.4068 26.6438 16.5472 26.9916 16.5523C27.3394 16.5574 27.6755 16.4267 27.9285 16.188Z" fill="#738065"/>
</svg>
