<svg width="115" height="114" viewBox="0 0 115 114" fill="none" xmlns="http://www.w3.org/2000/svg">
<path d="M107.751 45.1248L57.0205 80.2273L7.14551 44.3648L19.8043 34.1285C20.2318 33.7723 93.6193 33.7723 94.0468 34.1285L107.751 45.1248Z" fill="#8E9785"/>
<path d="M87.8955 4.75H26.1455C24.2558 4.75 22.4436 5.50067 21.1074 6.83686C19.7712 8.17306 19.0205 9.98533 19.0205 11.875V90.25C19.0205 90.8799 19.2707 91.484 19.7161 91.9294C20.1615 92.3748 20.7656 92.625 21.3955 92.625H92.6455C93.2754 92.625 93.8795 92.3748 94.3249 91.9294C94.7703 91.484 95.0205 90.8799 95.0205 90.25V11.875C95.0205 9.98533 94.2698 8.17306 92.9336 6.83686C91.5975 5.50067 89.7852 4.75 87.8955 4.75Z" fill="#EAEAEA"/>
<path d="M109.269 47.5V102.125C109.266 103.098 109.064 104.06 108.675 104.951L71.6729 70.0863L107.749 45.125C107.749 45.125 109.269 46.2888 109.269 47.5Z" fill="#738065"/>
<path d="M42.5093 69.7775L5.31678 104.832C4.95375 103.976 4.76793 103.055 4.77053 102.125V47.5C4.77053 45.8137 7.14553 44.365 7.14553 44.365L42.5093 69.7775Z" fill="#738065"/>
<path d="M65.8318 24.0821C64.3381 24.0773 62.8585 24.3711 61.48 24.9462C60.1014 25.5212 58.8517 26.366 57.8043 27.4308L57.0205 28.1908L56.2368 27.4071C54.6445 25.8214 52.6182 24.7428 50.4136 24.3074C48.2091 23.8719 45.9249 24.0992 43.8493 24.9604C41.7737 25.8216 39.9997 27.2783 38.751 29.1466C37.5023 31.0149 36.8349 33.2112 36.833 35.4583C36.8326 37.7676 37.3311 40.0497 38.2944 42.1484C39.2577 44.2472 40.663 46.113 42.4143 47.6183L55.4768 58.8046C55.9069 59.1725 56.4544 59.3747 57.0205 59.3747C57.5866 59.3747 58.1341 59.1725 58.5643 58.8046L71.6268 47.6183C73.378 46.113 74.7833 44.2472 75.7466 42.1484C76.7099 40.0497 77.2084 37.7676 77.208 35.4583C77.2017 32.4431 76.0012 29.5531 73.8691 27.421C71.7369 25.2889 68.847 24.0884 65.8318 24.0821Z" fill="#738065"/>
<path d="M108.677 104.951C108.026 106.454 106.877 107.687 105.424 108.442C104.414 108.976 103.288 109.253 102.146 109.25H11.8961C10.7025 109.256 9.52652 108.962 8.47613 108.395C7.05656 107.591 5.94512 106.338 5.31738 104.832L42.5099 69.7773L57.0211 80.2273L71.6511 70.0861L108.677 104.951Z" fill="#8E9785"/>
</svg>
