<svg width="49" height="48" viewBox="0 0 49 48" fill="none" xmlns="http://www.w3.org/2000/svg">
<path d="M46.6157 24.9281C46.6157 26.4937 45.5469 27.8531 44.0188 28.2375C43.7751 28.3031 43.5969 28.5187 43.5969 28.7812V46.0125C43.5969 47.0812 42.7251 47.9531 41.6563 47.9531H30.5751C30.5751 47.9531 30.5844 47.9531 30.5844 47.9437C31.0251 47.4 31.2688 46.7156 31.2782 46.0125V29.1937C35.2813 27.8156 35.2719 22.05 31.2782 20.6437C36.3032 20.85 41.6751 21.1781 43.8032 21.5625C45.3969 21.825 46.6344 23.3062 46.6157 24.9281ZM30.5751 28.2375C30.3219 28.3031 30.1532 28.5187 30.1532 28.7812V46.0125C30.1532 47.0812 29.2813 47.9531 28.2219 47.9531H7.34382C6.27507 47.9531 5.41257 47.0812 5.41257 46.0125V28.7812C5.41257 28.5187 5.23444 28.2938 4.99069 28.2375C3.50944 27.8906 2.36569 26.475 2.39382 24.9281C2.39382 23.2687 3.56569 21.8531 5.18757 21.5625C10.1282 20.6625 15.4063 20.3062 20.4219 20.4844C23.7313 20.6156 27.0782 20.9719 30.3688 21.5625C31.1657 21.7031 31.8782 22.1156 32.3844 22.725C33.9876 24.5719 32.9844 27.7219 30.5751 28.2375ZM30.0594 23.2406C21.9501 21.7875 13.5876 21.7781 5.47819 23.2406C4.25007 23.4187 3.65007 25.0313 4.45632 25.9875C4.69069 26.2875 5.01882 26.4937 5.38444 26.5781L7.11882 27V45.6937C7.11882 46.0031 7.37194 46.2562 7.68132 46.2562H27.8844C28.1938 46.2562 28.4469 46.0031 28.4469 45.6937V27L30.1719 26.5781C31.8969 26.1844 31.8969 23.5781 30.0594 23.2406ZM30.2001 24.5344C30.4907 24.8438 30.3219 25.3969 29.9001 25.4906L27.7438 26.025C27.4907 26.0906 27.3219 26.3062 27.3219 26.5687V45.1312H8.23444V26.5594C8.23444 26.3062 8.05632 26.0812 7.80319 26.0156L5.64694 25.4906C5.05632 25.3594 5.08444 24.4406 5.67507 24.3469C10.4188 23.4938 15.4907 23.1281 20.3001 23.3156C23.4782 23.4375 26.6938 23.7844 29.8532 24.3469C30.0032 24.3656 30.1157 24.4406 30.2001 24.5344ZM13.0813 29.7562C15.3032 29.7 15.3032 26.4375 13.0813 26.3812C10.8594 26.4469 10.8594 29.6906 13.0813 29.7562ZM13.7844 35.7281C10.6251 35.8312 10.6251 40.3969 13.7844 40.4906C16.9251 40.3875 16.9251 35.8312 13.7844 35.7281ZM23.6469 32.3156C23.5251 28.425 17.8719 28.4156 17.7501 32.3156C17.8719 36.1969 23.5251 36.1969 23.6469 32.3156ZM21.9219 38.9062C19.2126 38.9719 19.2126 42.9375 21.9219 43.0125C24.6313 42.9375 24.6313 38.9813 21.9219 38.9062ZM13.6438 28.0687C13.6251 27.3281 12.5282 27.3281 12.5094 28.0687C12.5188 28.8094 13.6438 28.8094 13.6438 28.0687ZM12.5188 38.1094C12.5657 39.7687 15.0032 39.7781 15.0501 38.1094C14.9938 36.4406 12.5563 36.45 12.5188 38.1094ZM22.5313 32.3156C22.4657 29.9063 18.9407 29.9063 18.8751 32.3156C18.9407 34.7156 22.4657 34.7156 22.5313 32.3156ZM20.9938 40.9594C21.0219 42.1781 22.8313 42.1781 22.8501 40.9594C22.8407 39.7406 21.0126 39.7406 20.9938 40.9594ZM14.7969 8.6625C14.7969 3.91875 18.6688 0.046875 23.4126 0.046875C28.1657 0.046875 32.0282 3.91875 32.0282 8.6625C31.5688 20.0906 15.2751 20.1 14.7969 8.6625ZM19.7938 9.0375L22.9344 14.4844C23.0376 14.6625 23.2157 14.7656 23.4126 14.7656C23.6188 14.7656 23.7969 14.6625 23.9001 14.4844L27.0407 9.0375C27.2657 8.68125 26.9751 8.18437 26.5532 8.19375H25.3626V3.13125C25.3626 2.82188 25.1094 2.56875 24.8001 2.56875H22.0251C21.7157 2.56875 21.4626 2.8125 21.4626 3.13125V8.20312H20.2626C19.8594 8.18437 19.5688 8.69063 19.7938 9.0375ZM25.5876 9.31875C25.1001 9.3 24.2657 9.4875 24.2469 8.75625V3.68437H22.5969V8.75625C22.5688 9.4875 21.7344 9.29063 21.2563 9.31875L23.4219 13.0875L25.5876 9.31875Z" fill="white"/>
</svg>
