<svg width="48" height="48" viewBox="0 0 48 48" fill="none" xmlns="http://www.w3.org/2000/svg">
<path d="M28.1713 43.329C28.1165 43.329 28.0753 43.3153 28.0204 43.3016C25.8531 42.8353 24.262 40.9971 24.1385 38.7887C23.919 34.8245 24.3305 29.5297 26.1275 24.8522C27.6089 25.2225 29.2413 25.5518 31.0107 25.8123C31.9847 25.9633 32.9174 26.0867 33.8364 26.169C33.0546 29.8451 33.3152 33.9877 34.0422 37.5679C34.7418 41.0383 31.6417 44.0835 28.1713 43.329ZM34.2617 4.41375C28.7337 3.57702 21.4637 7.84301 18.1716 12.1365C22.5748 14.0569 26.4704 17.637 26.8133 20.8057C26.9231 21.7384 26.7447 22.6437 26.2921 23.4805C27.8284 23.8645 29.4744 24.1937 31.2165 24.4544C39.7622 25.7575 46.8539 24.9756 47.869 20.8605C49.0898 16.0047 41.5592 5.52482 34.2617 4.41375ZM18.0344 28.7204C16.8273 29.1045 15.5105 29.4336 14.0839 29.7355C13.302 29.9001 12.5476 30.0372 11.8206 30.147C12.5476 33.0275 12.5064 36.2922 12.0812 39.1316C11.656 41.9711 14.3171 44.303 17.088 43.5486C17.1291 43.5348 17.1703 43.5211 17.2114 43.5074C18.9397 43.041 20.1606 41.4773 20.1606 39.6803C20.1743 36.5391 19.6256 32.3691 18.0344 28.7204ZM13.8096 28.3911C6.9373 29.8178 1.16239 29.4886 0.161073 26.1964C-1.0323 22.3145 4.60539 13.4944 10.4626 12.2873C16.3335 11.0665 25.0027 16.9237 25.4553 20.9565C25.8395 24.3858 20.6681 26.9783 13.8096 28.3911ZM4.49571 22.5065C4.44078 21.9853 4.00183 21.6424 3.50803 21.7521C3.01424 21.8482 2.65758 22.3557 2.71242 22.8907C2.75361 23.4118 3.19257 23.7548 3.68636 23.6451C4.18016 23.5491 4.53681 23.0415 4.49571 22.5065ZM6.34748 17.5273C5.55186 17.6645 4.70142 18.5286 4.46825 19.4614C4.22135 20.3942 4.66031 21.0388 5.45583 20.9017C6.25145 20.7782 7.1019 19.914 7.3488 18.9813C7.5957 18.0485 7.14309 17.4038 6.34748 17.5273Z" fill="white"/>
</svg>
