<svg width="49" height="48" viewBox="0 0 49 48" fill="none" xmlns="http://www.w3.org/2000/svg">
<path d="M13.1084 36.3943H31.8584C34.3322 36.3971 36.7684 35.788 38.9498 34.6213C41.1312 33.4546 42.9902 31.7665 44.3612 29.7073C45.7323 27.6482 46.5727 25.2819 46.8077 22.8192C47.0427 20.3566 46.665 17.874 45.7082 15.5927C44.7514 13.3114 43.2452 11.3022 41.3238 9.74393C39.4024 8.18571 37.1254 7.12689 34.6957 6.66178C32.266 6.19668 29.7589 6.33973 27.3979 7.07819C25.0368 7.81666 22.8951 9.12761 21.1634 10.8943C19.4159 12.6568 16.1084 13.8943 13.1084 13.8943C10.1247 13.8943 7.26323 15.0795 5.15345 17.1893C3.04366 19.2991 1.8584 22.1606 1.8584 25.1443C1.8584 28.128 3.04366 30.9894 5.15345 33.0992C7.26323 35.209 10.1247 36.3943 13.1084 36.3943ZM13.1084 16.8943C16.9634 16.8943 20.9684 15.3568 23.3009 12.9793C24.6876 11.5695 26.4012 10.5243 28.2894 9.93653C30.1775 9.3488 32.1816 9.2368 34.1235 9.61048C36.0654 9.98416 37.8848 10.8319 39.4199 12.0784C40.9551 13.3249 42.1584 14.9315 42.9229 16.7552C43.6874 18.579 43.9893 20.5634 43.8018 22.532C43.6143 24.5006 42.9433 26.3923 41.8483 28.039C40.7533 29.6856 39.2683 31.0362 37.5255 31.9705C35.7826 32.9048 33.8359 33.3939 31.8584 33.3943H13.1084C10.9204 33.3943 8.82194 32.5251 7.27477 30.9779C5.72759 29.4307 4.8584 27.3323 4.8584 25.1443C4.8584 22.9562 5.72759 20.8578 7.27477 19.3106C8.82194 17.7635 10.9204 16.8943 13.1084 16.8943Z" fill="white"/>
<path d="M31.8584 23.6443C33.101 23.6443 34.1084 22.6369 34.1084 21.3943C34.1084 20.1516 33.101 19.1443 31.8584 19.1443C30.6158 19.1443 29.6084 20.1516 29.6084 21.3943C29.6084 22.6369 30.6158 23.6443 31.8584 23.6443Z" fill="white"/>
<path d="M13.1084 31.8943H31.8584C33.588 31.8916 35.2901 31.4617 36.8136 30.6428C38.337 29.8239 39.6346 28.6413 40.591 27.2002C41.5473 25.759 42.1329 24.104 42.2956 22.382C42.4583 20.6601 42.1931 18.9246 41.5236 17.3299C40.8541 15.7351 39.801 14.3304 38.4579 13.2406C37.1148 12.1509 35.5233 11.4098 33.8248 11.0832C32.1263 10.7566 30.3735 10.8546 28.722 11.3686C27.0705 11.8826 25.5716 12.7965 24.3584 14.0293C21.7709 16.6843 17.3459 18.3943 13.1084 18.3943C11.3182 18.3943 9.6013 19.1054 8.33543 20.3713C7.06956 21.6372 6.3584 23.3541 6.3584 25.1443C6.3584 26.9345 7.06956 28.6514 8.33543 29.9172C9.6013 31.1831 11.3182 31.8943 13.1084 31.8943ZM31.8584 17.6443C32.6001 17.6443 33.3251 17.8642 33.9418 18.2763C34.5585 18.6883 35.0391 19.274 35.3229 19.9592C35.6068 20.6444 35.681 21.3984 35.5363 22.1259C35.3916 22.8533 35.0345 23.5215 34.51 24.0459C33.9856 24.5704 33.3174 24.9275 32.59 25.0722C31.8626 25.2169 31.1086 25.1427 30.4233 24.8588C29.7381 24.575 29.1524 24.0943 28.7404 23.4777C28.3283 22.861 28.1084 22.136 28.1084 21.3943C28.1084 20.3997 28.5035 19.4459 29.2067 18.7426C29.91 18.0394 30.8638 17.6443 31.8584 17.6443Z" fill="white"/>
<path d="M31.8583 37.8943H13.1083C10.8485 37.8925 8.62982 37.2901 6.6794 36.1488C4.72898 35.0076 3.11692 33.3684 2.0083 31.3993C2.42597 34.0439 3.77315 36.4529 5.80773 38.1933C7.84231 39.9337 10.4309 40.8914 13.1083 40.8943H31.8583C35.3163 40.895 38.6683 39.7009 41.347 37.5142C44.0258 35.3275 45.8667 32.2824 46.5583 28.8943C45.1757 31.6036 43.0711 33.8781 40.4769 35.4663C37.8827 37.0546 34.9 37.8949 31.8583 37.8943Z" fill="white"/>
</svg>
