<svg width="41" height="41" viewBox="0 0 41 41" fill="none" xmlns="http://www.w3.org/2000/svg">
<path d="M31.8113 18.6222H21.8113V8.62223C21.8113 8.18021 21.6357 7.75628 21.3231 7.44372C21.0106 7.13116 20.5866 6.95557 20.1446 6.95557C19.7026 6.95557 19.2787 7.13116 18.9661 7.44372C18.6535 7.75628 18.4779 8.18021 18.4779 8.62223V18.6222H8.47795C8.03592 18.6222 7.612 18.7978 7.29943 19.1104C6.98687 19.4229 6.81128 19.8469 6.81128 20.2889C6.81128 20.7309 6.98687 21.1549 7.29943 21.4674C7.612 21.78 8.03592 21.9556 8.47795 21.9556H18.4779V31.9556C18.4779 32.3976 18.6535 32.8215 18.9661 33.1341C19.2787 33.4466 19.7026 33.6222 20.1446 33.6222C20.5866 33.6222 21.0106 33.4466 21.3231 33.1341C21.6357 32.8215 21.8113 32.3976 21.8113 31.9556V21.9556H31.8113C32.2533 21.9556 32.6772 21.78 32.9898 21.4674C33.3024 21.1549 33.4779 20.7309 33.4779 20.2889C33.4779 19.8469 33.3024 19.4229 32.9898 19.1104C32.6772 18.7978 32.2533 18.6222 31.8113 18.6222Z" fill="white"/>
</svg>
