<svg width="57" height="56" viewBox="0 0 57 56" fill="none" xmlns="http://www.w3.org/2000/svg">
<g clip-path="url(#clip0_352_11218)">
<path fill-rule="evenodd" clip-rule="evenodd" d="M51.8961 45.2861C51.0573 46.1267 49.7878 46.409 48.6648 46.001C48.0118 45.765 47.2838 45.9277 46.7935 46.4174C46.3027 46.9071 46.1394 47.6363 46.3747 48.2886C46.781 49.4122 46.4992 50.6823 45.6604 51.5229C45.0772 52.1056 44.3027 52.4261 43.4788 52.4261H43.4776C42.6537 52.4261 41.8775 52.105 41.296 51.5217C40.1021 50.3279 40.0926 48.3899 41.2692 47.1853C41.2841 47.1716 41.2996 47.1567 41.3097 47.1472C41.6576 46.8148 41.8566 46.3566 41.8626 45.8753C41.8673 45.3945 41.6785 44.9316 41.3389 44.592L38.2917 41.5448L41.9186 37.9179L44.9646 40.9651C45.3042 41.3053 45.7444 41.4947 46.2478 41.4888C46.7286 41.4834 47.1855 41.285 47.5186 40.9383C47.5269 40.9294 47.5406 40.9145 47.5549 40.9002C48.1346 40.3313 48.9013 40.0185 49.7145 40.0185C50.5384 40.0185 51.3123 40.3396 51.8949 40.9234C52.4781 41.5061 52.7992 42.2805 52.7992 43.1056C52.8004 43.929 52.4793 44.7034 51.8961 45.2861ZM11.1561 10.8437C15.4711 6.5293 20.7267 3.74122 24.5461 3.74122C25.9097 3.74122 26.9594 4.09866 27.6654 4.80164L27.6761 4.81177C28.8944 6.03722 29.0701 8.391 28.1569 11.2732C27.1018 14.601 24.785 18.1696 21.6341 21.3204C17.3173 25.6354 12.0628 28.4229 8.24529 28.4229C7.20571 28.4229 6.35082 28.2132 5.68895 27.8033L5.05686 27.1713L5.0092 27.2189C2.71499 24.6239 4.62138 17.3784 11.1561 10.8437ZM54.4238 38.3951C53.1662 37.1363 51.494 36.4434 49.7151 36.4434C48.5284 36.4434 47.3881 36.752 46.3872 37.3311L44.1181 35.0625C45.499 32.0492 47.2374 25.4877 44.4576 18.7653C43.4187 16.2483 41.8292 13.9106 39.7322 11.8142L30.211 2.29237C30.2062 2.2876 30.2027 2.28283 30.1985 2.27866C30.1949 2.27509 30.1901 2.27211 30.1866 2.26854L30.074 2.15534L30.0668 2.1619C28.6936 0.859003 26.7926 0.166748 24.5455 0.166748C19.7551 0.166748 13.6564 3.28905 8.62835 8.31654C0.888439 16.057 -1.76322 25.5312 2.59167 29.8849C2.83235 30.1256 3.09746 30.34 3.3721 30.5408L12.1897 39.359C17.1797 44.3502 22.6158 45.5649 26.7241 45.5649C27.2627 45.5649 27.7774 45.544 28.2659 45.5077C31.169 45.295 33.7962 44.4866 35.4381 43.7443L37.7072 46.0141C36.2423 48.5597 36.595 51.875 38.7683 54.0489C40.0259 55.3071 41.6993 55.9999 43.4782 55.9999H43.4794C45.2583 55.9999 46.9306 55.3077 48.1894 54.0495C49.3529 52.8842 50.0195 51.3406 50.1184 49.7446C51.715 49.6463 53.2598 48.9785 54.425 47.8132C55.6827 46.5556 56.3749 44.8827 56.3737 43.1033C56.3737 41.3244 55.6803 39.6515 54.4238 38.3951Z" fill="white"/>
<path fill-rule="evenodd" clip-rule="evenodd" d="M18.9556 13.5444C19.6815 14.2703 19.6815 15.4481 18.9556 16.1739L15.6739 19.4556C14.9481 20.1815 13.7703 20.1815 13.0444 19.4556C12.3185 18.7297 12.3185 17.5519 13.0444 16.8261L16.3261 13.5444C17.0519 12.8185 18.2297 12.8185 18.9556 13.5444Z" fill="white"/>
</g>
<defs>
<clipPath id="clip0_352_11218">
<rect width="56" height="56" fill="white" transform="translate(0.5)"/>
</clipPath>
</defs>
</svg>
