<svg width="49" height="49" viewBox="0 0 49 49" fill="none" xmlns="http://www.w3.org/2000/svg">
<g clip-path="url(#clip0_352_11626)">
<path d="M47.924 33.974C47.74 33.68 47.4181 33.5 47.072 33.5H1.07208C0.726053 33.5 0.404115 33.68 0.222053 33.974C0.0400838 34.268 0.0220838 34.636 0.178084 34.946C1.58208 37.756 4.40405 39.5 7.54402 39.5H40.6C43.738 39.5 46.56 37.756 47.968 34.948C48.1201 34.636 48.1061 34.27 47.924 33.974Z" fill="white"/>
<path d="M26.8141 13.708C26.9781 13.3379 27.0721 12.9299 27.0721 12.5C27.0721 10.846 25.7261 9.5 24.0721 9.5C22.4181 9.5 21.0721 10.846 21.0721 12.5C21.0721 12.93 21.1661 13.338 21.3301 13.708C12.2681 14.954 5.11209 22.25 4.19409 31.5H43.9481C43.0301 22.254 35.8721 14.954 26.8141 13.708ZM23.1381 19.498C17.5441 19.868 12.7261 23.5199 10.8681 28.802C10.7241 29.212 10.336 29.47 9.92409 29.47C9.81412 29.47 9.70209 29.452 9.59212 29.414C9.07209 29.23 8.79815 28.66 8.98012 28.138C11.1041 22.0979 16.6102 17.924 23.0062 17.5019C23.5361 17.4679 24.0322 17.8819 24.0701 18.4339C24.1061 18.986 23.6901 19.462 23.1381 19.498Z" fill="white"/>
</g>
<defs>
<clipPath id="clip0_352_11626">
<rect width="48" height="48" fill="white" transform="translate(0.0722656 0.5)"/>
</clipPath>
</defs>
</svg>
