<svg width="710" height="700" viewBox="0 0 710 700" fill="none" xmlns="http://www.w3.org/2000/svg">
<g opacity="0.4">
<path d="M675.325 56.559C675.325 56.7092 675.475 56.8595 675.475 57.0097C675.475 57.16 675.626 57.3102 675.776 57.4605C675.926 57.6107 675.926 57.6107 676.076 57.6107C676.227 57.6107 676.227 57.6107 676.377 57.6107L676.527 57.4605C676.527 57.4605 676.527 57.3102 676.527 57.16C676.527 57.0098 676.527 57.0097 676.527 56.8595C676.527 56.7092 676.527 56.4088 676.527 55.958C676.527 55.5073 676.527 54.9063 676.828 54.4556C676.978 53.8546 677.278 53.2536 677.729 52.8029C678.03 52.5024 678.33 52.3522 678.48 52.3522C678.631 52.3522 678.631 52.3522 678.631 52.5024C678.781 52.9532 678.48 53.7044 678.18 54.3054C677.879 55.0566 677.429 55.6575 677.128 56.1083C676.828 56.559 676.527 57.0097 676.377 57.3102C676.227 57.6107 676.076 57.761 676.227 57.9112C676.227 57.9112 676.527 57.9112 676.828 57.6107C677.128 57.3102 677.429 57.0097 677.879 56.559C678.33 56.1083 678.631 55.5073 679.081 54.7561C679.532 54.0049 679.983 53.2537 679.833 52.202C679.833 51.9015 679.682 51.601 679.532 51.4507C679.382 51.1502 678.931 51 678.631 51C677.879 51 677.429 51.3005 677.128 51.601C676.377 52.2019 676.076 52.9532 675.776 53.7044C675.475 54.3054 675.475 54.9063 675.475 55.3571C675.475 55.8078 675.475 56.1083 675.475 56.1083C675.175 56.2585 675.175 56.4088 675.325 56.559Z" fill="#723D1B"/>
<path d="M675.179 58.212C675.329 58.0618 675.479 58.0618 675.629 57.9115C675.78 57.7613 675.93 57.611 675.93 57.4608C675.93 57.3105 675.93 57.1603 675.93 57.0101C675.93 56.8598 675.78 56.8598 675.78 56.7096L675.629 56.5593C675.629 56.5593 675.479 56.5593 675.329 56.5593C675.179 56.5593 675.179 56.5593 675.028 56.7096C674.878 56.7096 674.578 56.8598 674.127 57.0101C673.676 57.1603 673.075 57.1603 672.324 57.1603C671.573 57.1603 670.822 57.01 670.07 56.8598C669.77 56.7096 669.469 56.5593 669.469 56.2588C669.319 55.9583 669.469 55.8081 669.469 55.8081C669.62 55.6579 670.07 55.6579 670.521 55.5076C670.972 55.5076 671.272 55.5076 671.723 55.5076C672.474 55.6579 673.225 55.8081 673.826 56.1086C674.427 56.4091 674.878 56.7096 675.179 57.0101C675.479 57.3105 675.629 57.3105 675.78 57.3105C675.78 57.3105 675.78 57.0101 675.479 56.7096C675.179 56.4091 674.878 55.9583 674.277 55.5076C673.676 55.0569 672.925 54.7564 672.024 54.4559C671.573 54.3057 671.122 54.3057 670.521 54.3057C670.07 54.3057 669.62 54.3057 669.019 54.6061C668.718 54.7564 668.418 55.0569 668.267 55.3574C668.117 55.6579 668.117 56.1086 668.117 56.4091C668.267 57.0101 668.718 57.611 669.169 57.9115C670.221 58.5125 670.972 58.5125 671.723 58.5125C672.474 58.5125 673.075 58.5125 673.676 58.3622C674.127 58.212 674.427 58.212 674.427 58.212C674.878 58.3622 675.028 58.212 675.179 58.212Z" fill="#723D1B"/>
<path d="M696.362 75.339C696.362 75.339 691.554 58.5117 685.093 56.2581C678.633 54.0044 670.67 57.3098 670.069 65.8736C669.468 74.2873 675.327 99.2277 690.953 95.4716C706.578 91.7155 696.362 75.339 696.362 75.339Z" fill="#A35826"/>
<path opacity="0.32" d="M696.362 75.339C696.362 75.339 691.554 58.5117 685.093 56.2581C678.633 54.0044 670.67 57.3098 670.069 65.8736C669.468 74.2873 675.327 99.2277 690.953 95.4716C706.578 91.7155 696.362 75.339 696.362 75.339Z" fill="#A35826"/>
<path d="M694.556 90.6645C702.688 90.6645 709.28 84.0724 709.28 75.9407C709.28 67.8089 702.688 61.2168 694.556 61.2168C686.424 61.2168 679.832 67.8089 679.832 75.9407C679.832 84.0724 686.424 90.6645 694.556 90.6645Z" fill="#A35826"/>
<path d="M694.555 89.9131C702.272 89.9131 708.527 83.6573 708.527 75.9404C708.527 68.2235 702.272 61.9678 694.555 61.9678C686.838 61.9678 680.582 68.2235 680.582 75.9404C680.582 83.6573 686.838 89.9131 694.555 89.9131Z" fill="#51A500"/>
<path d="M706.466 78.7233C707.95 72.1681 703.84 65.6505 697.285 64.1658C690.73 62.6811 684.212 66.7915 682.727 73.3467C681.243 79.9018 685.353 86.4194 691.908 87.9041C698.463 89.3888 704.981 85.2784 706.466 78.7233Z" fill="#A9D800"/>
<path opacity="0.55" d="M702.968 75.9402C702.968 80.5977 699.212 84.2035 694.705 84.2035C690.047 84.2035 686.441 80.4475 686.441 75.9402C686.441 71.4328 690.197 67.6768 694.705 67.6768C699.212 67.6768 702.968 71.4328 702.968 75.9402Z" fill="white"/>
<path d="M695.155 70.3822C695.155 70.6827 694.554 71.7344 694.554 71.7344C694.554 71.7344 693.953 70.6827 693.953 70.3822C693.953 70.0817 694.254 69.7812 694.554 69.7812C694.855 69.9315 695.155 70.0817 695.155 70.3822Z" fill="#51A500"/>
<path d="M694.105 81.5006C694.105 81.2002 694.706 80.1484 694.706 80.1484C694.706 80.1484 695.307 81.2002 695.307 81.5006C695.307 81.8011 695.007 82.1016 694.706 82.1016C694.406 81.9514 694.105 81.8011 694.105 81.5006Z" fill="#51A500"/>
<path d="M691.102 71.7351C691.252 71.8854 691.703 73.0873 691.703 73.0873C691.703 73.0873 690.501 72.7868 690.351 72.4863C690.201 72.3361 690.201 71.8854 690.351 71.7351C690.501 71.4346 690.952 71.4346 691.102 71.7351Z" fill="#51A500"/>
<path d="M698.163 80.2975C698.013 80.1473 697.562 78.9453 697.562 78.9453C697.562 78.9453 698.764 79.2458 698.915 79.5463C699.065 79.6965 699.065 80.1473 698.915 80.2975C698.764 80.4477 698.314 80.4477 698.163 80.2975Z" fill="#51A500"/>
<path d="M689.148 75.4902C689.448 75.4902 690.5 76.0912 690.5 76.0912C690.5 76.0912 689.448 76.6922 689.148 76.6922C688.847 76.6922 688.547 76.3917 688.547 76.0912C688.547 75.6405 688.847 75.4902 689.148 75.4902Z" fill="#51A500"/>
<path d="M700.114 76.5428C699.813 76.5428 698.762 75.9418 698.762 75.9418C698.762 75.9418 699.813 75.3408 700.114 75.3408C700.414 75.3408 700.715 75.6413 700.715 75.9418C700.715 76.2423 700.414 76.5428 700.114 76.5428Z" fill="#51A500"/>
<path d="M690.351 79.5463C690.501 79.396 691.703 78.9453 691.703 78.9453C691.703 78.9453 691.403 80.1473 691.102 80.2975C690.802 80.4477 690.501 80.4477 690.351 80.2975C690.201 79.997 690.201 79.6965 690.351 79.5463Z" fill="#51A500"/>
<path d="M698.915 72.485C698.764 72.6352 697.562 73.086 697.562 73.086C697.562 73.086 697.863 71.884 698.163 71.7338C698.314 71.5835 698.764 71.5835 698.915 71.7338C699.065 71.884 699.065 72.1845 698.915 72.485Z" fill="#51A500"/>
<path d="M693.052 70.6817C693.202 70.9822 693.052 72.1841 693.052 72.1841C693.052 72.1841 692.151 71.4329 692 71.1324C691.85 70.8319 692 70.5314 692.301 70.3812C692.601 70.231 692.902 70.3812 693.052 70.6817Z" fill="#51A500"/>
<path d="M696.207 81.1987C696.057 80.8982 696.207 79.6963 696.207 79.6963C696.207 79.6963 697.109 80.4475 697.259 80.748C697.409 81.0485 697.259 81.349 696.959 81.4992C696.658 81.6495 696.358 81.4992 696.207 81.1987Z" fill="#51A500"/>
<path d="M689.748 73.3861C690.048 73.5363 690.799 74.4378 690.799 74.4378C690.799 74.4378 689.597 74.5881 689.297 74.4378C688.996 74.2876 688.846 73.9871 688.996 73.6866C689.147 73.3861 689.447 73.2358 689.748 73.3861Z" fill="#51A500"/>
<path d="M699.513 78.6448C699.212 78.4946 698.461 77.5931 698.461 77.5931C698.461 77.5931 699.663 77.4429 699.963 77.5931C700.264 77.7434 700.414 78.0439 700.264 78.3444C700.114 78.6448 699.813 78.6448 699.513 78.6448Z" fill="#51A500"/>
<path d="M689.297 77.5931C689.597 77.4429 690.799 77.5931 690.799 77.5931C690.799 77.5931 690.048 78.4946 689.748 78.6448C689.447 78.7951 689.147 78.6448 688.996 78.3444C688.846 78.0439 688.996 77.5931 689.297 77.5931Z" fill="#51A500"/>
<path d="M699.963 74.4378C699.663 74.5881 698.461 74.4378 698.461 74.4378C698.461 74.4378 699.212 73.5363 699.513 73.3861C699.813 73.2358 700.114 73.3861 700.264 73.6866C700.414 73.9871 700.264 74.2876 699.963 74.4378Z" fill="#51A500"/>
<path d="M692 80.8974C692.151 80.5969 693.052 79.8457 693.052 79.8457C693.052 79.8457 693.202 81.0477 693.052 81.3481C692.902 81.6486 692.601 81.7989 692.301 81.6486C692 81.4984 691.85 81.0476 692 80.8974Z" fill="#51A500"/>
<path d="M697.259 71.1324C697.109 71.4329 696.207 72.1841 696.207 72.1841C696.207 72.1841 696.057 70.9822 696.207 70.6817C696.358 70.3812 696.658 70.231 696.959 70.3812C697.259 70.5314 697.409 70.8319 697.259 71.1324Z" fill="#51A500"/>
<path d="M695.307 69.7807C695.307 70.0811 694.706 71.2831 694.706 71.2831C694.706 71.2831 694.105 70.0811 694.105 69.7807C694.105 69.4802 694.406 69.1797 694.706 69.1797C695.007 69.1797 695.307 69.4802 695.307 69.7807Z" fill="#A35826"/>
<path d="M693.953 82.1001C693.953 81.7996 694.554 80.5977 694.554 80.5977C694.554 80.5977 695.155 81.7996 695.155 82.1001C695.155 82.4006 694.855 82.7011 694.554 82.7011C694.254 82.7011 693.953 82.5508 693.953 82.1001Z" fill="#A35826"/>
<path d="M690.646 71.1322C690.947 71.4327 691.247 72.6346 691.247 72.6346C691.247 72.6346 690.045 72.1839 689.745 72.0337C689.444 71.7332 689.444 71.4327 689.745 71.1322C690.045 70.982 690.496 70.982 690.646 71.1322Z" fill="#A35826"/>
<path d="M698.609 80.7485C698.308 80.448 698.008 79.2461 698.008 79.2461C698.008 79.2461 699.21 79.6968 699.51 79.8471C699.811 80.1475 699.811 80.448 699.51 80.7485C699.21 81.049 698.759 81.049 698.609 80.7485Z" fill="#A35826"/>
<path d="M688.394 75.3389C688.694 75.3389 689.896 75.9399 689.896 75.9399C689.896 75.9399 688.694 76.5408 688.394 76.5408C688.093 76.5408 687.793 76.2403 687.793 75.9399C687.793 75.6394 688.093 75.3389 688.394 75.3389Z" fill="#A35826"/>
<path d="M700.866 76.5408C700.565 76.5408 699.363 75.9399 699.363 75.9399C699.363 75.9399 700.565 75.3389 700.866 75.3389C701.166 75.3389 701.467 75.6394 701.467 75.9399C701.467 76.2403 701.166 76.5408 700.866 76.5408Z" fill="#A35826"/>
<path d="M689.897 79.8471C690.198 79.5466 691.4 79.2461 691.4 79.2461C691.4 79.2461 690.949 80.448 690.799 80.7485C690.498 81.049 690.198 81.049 689.897 80.7485C689.597 80.5983 689.597 80.1475 689.897 79.8471Z" fill="#A35826"/>
<path d="M699.362 72.035C699.061 72.3355 697.859 72.636 697.859 72.636C697.859 72.636 698.31 71.4341 698.46 71.1336C698.761 70.8331 699.061 70.8331 699.362 71.1336C699.662 71.4341 699.662 71.7346 699.362 72.035Z" fill="#A35826"/>
<path d="M692.902 69.9317C693.052 70.2322 692.902 71.5844 692.902 71.5844C692.902 71.5844 691.85 70.6829 691.7 70.3824C691.549 70.0819 691.7 69.7814 692 69.6312C692.301 69.481 692.751 69.6312 692.902 69.9317Z" fill="#A35826"/>
<path d="M696.36 81.9515C696.21 81.651 696.36 80.2988 696.36 80.2988C696.36 80.2988 697.411 81.2003 697.562 81.5008C697.712 81.8013 697.562 82.1018 697.261 82.252C696.961 82.4022 696.51 82.252 696.36 81.9515Z" fill="#A35826"/>
<path d="M689.146 72.9365C689.447 73.0868 690.348 74.1385 690.348 74.1385C690.348 74.1385 688.996 74.2887 688.695 74.1385C688.395 73.9882 688.245 73.6877 688.395 73.3872C688.545 73.0867 688.846 72.9365 689.146 72.9365Z" fill="#A35826"/>
<path d="M700.112 78.9455C699.812 78.7952 698.91 77.7435 698.91 77.7435C698.91 77.7435 700.262 77.5933 700.563 77.7435C700.863 77.8938 701.014 78.1943 700.863 78.4948C700.713 78.9455 700.413 79.0957 700.112 78.9455Z" fill="#A35826"/>
<path d="M688.695 77.7435C688.996 77.5933 690.348 77.7435 690.348 77.7435C690.348 77.7435 689.447 78.7952 689.146 78.9455C688.846 79.0957 688.545 78.9455 688.395 78.645C688.245 78.1942 688.395 77.8938 688.695 77.7435Z" fill="#A35826"/>
<path d="M700.563 74.1388C700.262 74.289 698.91 74.1388 698.91 74.1388C698.91 74.1388 699.812 73.0871 700.112 72.9369C700.413 72.7866 700.713 72.9369 700.863 73.2374C701.014 73.6881 700.863 73.9886 700.563 74.1388Z" fill="#A35826"/>
<path d="M691.701 81.5008C691.851 81.2003 692.903 80.2988 692.903 80.2988C692.903 80.2988 693.053 81.651 692.903 81.9515C692.753 82.252 692.452 82.4022 692.152 82.252C691.701 82.1018 691.551 81.8013 691.701 81.5008Z" fill="#A35826"/>
<path d="M697.562 70.5318C697.411 70.8323 696.36 71.7338 696.36 71.7338C696.36 71.7338 696.21 70.3816 696.36 70.0811C696.51 69.7806 696.81 69.6304 697.111 69.7806C697.562 69.7806 697.712 70.2314 697.562 70.5318Z" fill="#A35826"/>
<path d="M695.307 69.7807C695.307 70.0811 694.706 71.2831 694.706 71.2831C694.706 71.2831 694.105 70.0811 694.105 69.7807C694.105 69.4802 694.406 69.1797 694.706 69.1797C695.007 69.1797 695.307 69.4802 695.307 69.7807Z" fill="#A35826"/>
<path d="M693.953 82.1001C693.953 81.7996 694.554 80.5977 694.554 80.5977C694.554 80.5977 695.155 81.7996 695.155 82.1001C695.155 82.4006 694.855 82.7011 694.554 82.7011C694.254 82.7011 693.953 82.5508 693.953 82.1001Z" fill="#A35826"/>
<path d="M690.646 71.1322C690.947 71.4327 691.247 72.6346 691.247 72.6346C691.247 72.6346 690.045 72.1839 689.745 72.0337C689.444 71.7332 689.444 71.4327 689.745 71.1322C690.045 70.982 690.496 70.982 690.646 71.1322Z" fill="#A35826"/>
<path d="M698.609 80.7485C698.308 80.448 698.008 79.2461 698.008 79.2461C698.008 79.2461 699.21 79.6968 699.51 79.8471C699.811 80.1475 699.811 80.448 699.51 80.7485C699.21 81.049 698.759 81.049 698.609 80.7485Z" fill="#A35826"/>
<path d="M688.394 75.3389C688.694 75.3389 689.896 75.9399 689.896 75.9399C689.896 75.9399 688.694 76.5408 688.394 76.5408C688.093 76.5408 687.793 76.2403 687.793 75.9399C687.793 75.6394 688.093 75.3389 688.394 75.3389Z" fill="#A35826"/>
<path d="M700.866 76.5408C700.565 76.5408 699.363 75.9399 699.363 75.9399C699.363 75.9399 700.565 75.3389 700.866 75.3389C701.166 75.3389 701.467 75.6394 701.467 75.9399C701.467 76.2403 701.166 76.5408 700.866 76.5408Z" fill="#A35826"/>
<path d="M689.897 79.8471C690.198 79.5466 691.4 79.2461 691.4 79.2461C691.4 79.2461 690.949 80.448 690.799 80.7485C690.498 81.049 690.198 81.049 689.897 80.7485C689.597 80.5983 689.597 80.1475 689.897 79.8471Z" fill="#A35826"/>
<path d="M699.362 72.035C699.061 72.3355 697.859 72.636 697.859 72.636C697.859 72.636 698.31 71.4341 698.46 71.1336C698.761 70.8331 699.061 70.8331 699.362 71.1336C699.662 71.4341 699.662 71.7346 699.362 72.035Z" fill="#A35826"/>
<path d="M692.902 69.9317C693.052 70.2322 692.902 71.5844 692.902 71.5844C692.902 71.5844 691.85 70.6829 691.7 70.3824C691.549 70.0819 691.7 69.7814 692 69.6312C692.301 69.481 692.751 69.6312 692.902 69.9317Z" fill="#A35826"/>
<path d="M696.36 81.9515C696.21 81.651 696.36 80.2988 696.36 80.2988C696.36 80.2988 697.411 81.2003 697.562 81.5008C697.712 81.8013 697.562 82.1018 697.261 82.252C696.961 82.4022 696.51 82.252 696.36 81.9515Z" fill="#A35826"/>
<path d="M689.146 72.9365C689.447 73.0868 690.348 74.1385 690.348 74.1385C690.348 74.1385 688.996 74.2887 688.695 74.1385C688.395 73.9882 688.245 73.6877 688.395 73.3872C688.545 73.0867 688.846 72.9365 689.146 72.9365Z" fill="#A35826"/>
<path d="M700.112 78.9455C699.812 78.7952 698.91 77.7435 698.91 77.7435C698.91 77.7435 700.262 77.5933 700.563 77.7435C700.863 77.8938 701.014 78.1943 700.863 78.4948C700.713 78.9455 700.413 79.0957 700.112 78.9455Z" fill="#A35826"/>
<path d="M688.695 77.7435C688.996 77.5933 690.348 77.7435 690.348 77.7435C690.348 77.7435 689.447 78.7952 689.146 78.9455C688.846 79.0957 688.545 78.9455 688.395 78.645C688.245 78.1942 688.395 77.8938 688.695 77.7435Z" fill="#A35826"/>
<path d="M700.563 74.1388C700.262 74.289 698.91 74.1388 698.91 74.1388C698.91 74.1388 699.812 73.0871 700.112 72.9369C700.413 72.7866 700.713 72.9369 700.863 73.2374C701.014 73.6881 700.863 73.9886 700.563 74.1388Z" fill="#A35826"/>
<path d="M691.701 81.5008C691.851 81.2003 692.903 80.2988 692.903 80.2988C692.903 80.2988 693.053 81.651 692.903 81.9515C692.753 82.252 692.452 82.4022 692.152 82.252C691.701 82.1018 691.551 81.8013 691.701 81.5008Z" fill="#A35826"/>
<path d="M697.562 70.5318C697.411 70.8323 696.36 71.7338 696.36 71.7338C696.36 71.7338 696.21 70.3816 696.36 70.0811C696.51 69.7806 696.81 69.6304 697.111 69.7806C697.562 69.7806 697.712 70.2314 697.562 70.5318Z" fill="#A35826"/>
</g>
<g opacity="0.4">
<path d="M53.4551 63.9807C53.4551 63.9807 56.1108 57.0181 62.7417 47.8065C69.4846 38.3543 75.1776 38.0763 78.9161 40.1096C82.8954 42.2549 90.2814 34.5662 95.8332 37.7364C101.385 40.9066 98.1817 45.2717 96.5966 48.0476C95.0115 50.8235 94.779 59.4999 86.6503 61.865C78.5216 64.23 75.0694 59.6947 70.4386 63.9809C66.2891 68.4912 53.4551 63.9807 53.4551 63.9807Z" fill="#51A500"/>
<path d="M43.9305 63.0604C43.9305 63.0604 59.2087 57.2889 56.7275 45.0066C54.2463 32.7244 53.6861 33.9277 57.1593 26.4672C60.7445 18.766 51.8731 15.8073 51.8731 15.8073C51.8731 15.8073 48.8318 4.72838 42.6077 3.00215C36.3837 1.27592 27.3669 14.3547 29.7942 20.4626C32.2215 26.5705 30.5907 31.9606 26.8894 35.5083C23.1881 39.0559 14.5781 41.1969 43.9305 63.0604Z" fill="#51A500"/>
<path d="M36.819 89.0333C36.4829 89.7553 36.1467 90.4774 36.0513 91.3114C35.7152 92.0334 35.7318 92.6267 35.5077 93.108C35.2836 93.5893 35.4122 93.9421 35.6529 94.0541C35.8936 94.1662 35.8936 94.1661 36.2463 94.0375C36.599 93.9089 36.599 93.9089 36.711 93.6682C36.8231 93.4275 37.1758 93.2989 37.3998 92.8176C37.6239 92.3363 37.7359 92.0956 37.96 91.6143C38.1841 91.133 38.7443 89.9296 39.7526 87.7637C40.6489 85.8384 41.5286 83.3197 42.3917 80.2077C43.2548 77.0956 43.9893 73.6309 44.5952 69.8135C45.2011 65.9961 45.3256 61.9545 45.3381 58.1537C45.4626 54.1122 45.1224 50.44 44.8943 46.5271C44.5541 42.8549 44.3425 39.5354 43.9069 36.6972C43.4712 33.859 43.1642 31.3735 42.7617 29.7221C42.3593 28.0706 42.214 27.1245 41.8613 27.2531C41.8613 27.2531 41.7659 28.0872 41.8157 29.8672C41.8654 31.6473 42.0438 33.7802 42.2388 36.5063C42.4338 39.2325 42.6453 42.552 42.7449 46.1122C42.8444 49.6724 42.944 53.2325 42.9315 57.0333C42.919 60.8342 42.6658 64.523 42.172 68.0997C41.6782 71.6765 41.0557 74.9006 40.4167 77.5313C39.6656 80.4026 38.8979 82.6806 38.2257 84.1246C37.4414 85.8093 37.2339 86.884 36.8812 87.0126C37.4912 87.5894 37.1551 88.3113 36.819 89.0333Z" fill="#8EC459"/>
<path d="M43.1693 52.7479C43.4099 52.8599 43.2979 53.1006 43.5385 53.2126C43.7792 53.3247 43.7792 53.3247 44.0199 53.4367C44.2605 53.5487 44.5012 53.6608 44.6132 53.4201C44.8539 53.5321 44.9659 53.2915 45.2066 53.4035L45.5593 53.2749L45.6713 53.0342C45.6713 53.0342 45.7834 52.7936 45.5427 52.6815C45.5427 52.6815 45.5261 52.0882 45.3975 51.7355C45.3809 51.1421 45.0116 50.6774 44.7543 49.972C44.4971 49.2666 43.8871 48.6898 43.3892 47.8724C42.7793 47.2956 42.1693 46.7188 41.5594 46.142C40.9494 45.5652 40.2274 45.2292 39.6175 44.6524C39.0075 44.0756 38.5262 43.8515 37.8042 43.5154C37.3229 43.2914 36.8416 43.0673 36.3602 42.8432C35.8789 42.6191 35.7669 42.8598 35.7669 42.8598C35.7669 42.8598 35.6548 43.1004 36.0241 43.5652C36.1528 43.9179 36.6341 44.142 37.0034 44.6067C37.3727 45.0715 37.7419 45.5362 38.3519 46.1129C38.9619 46.6897 39.3311 47.1545 39.9411 47.7313C40.551 48.308 40.9203 48.7727 41.5303 49.3495C41.8996 49.8143 42.2689 50.279 42.6382 50.7437C43.0075 51.2084 43.1361 51.5612 43.2647 51.9139C43.3933 52.2666 43.3933 52.2665 43.2813 52.5072C42.9286 52.6358 42.9286 52.6358 43.1693 52.7479Z" fill="#8EC459"/>
<path d="M43.2841 73.8872C43.06 74.3685 42.8359 74.8499 42.6119 75.3312C42.3878 75.8125 42.5164 76.1652 42.2923 76.6466C42.1803 76.8872 42.309 77.2399 42.5496 77.3519C42.7903 77.464 42.7903 77.464 43.0309 77.576C43.2716 77.688 43.3836 77.4474 43.3836 77.4474C43.4957 77.2067 43.7363 77.3188 43.8484 77.0781C43.9604 76.8375 44.0725 76.5967 44.4252 76.4681C44.5372 76.2275 45.226 75.3768 46.0269 74.2856C46.8277 73.1943 47.7406 71.8624 49.2468 70.5138C50.5124 69.0533 52.1307 67.4641 53.861 65.6342C55.72 64.1571 57.6909 62.4393 59.5499 60.9621C61.6495 59.597 63.5085 58.1198 65.7367 57.1074C67.7243 55.9829 69.5998 55.0991 71.2347 54.1033C72.7575 53.3481 74.1683 52.8336 75.3384 52.2071C76.3965 51.8212 76.8613 51.4519 76.7327 51.0992C76.7327 51.0992 76.1393 51.1158 75.1932 51.261C74.2472 51.4062 72.8364 51.9207 71.0729 52.5639C69.3094 53.207 67.4338 54.0908 65.2056 55.1033C62.9773 56.1157 60.9898 57.2401 58.8902 58.6052C56.7906 59.9703 54.9316 61.4475 53.0727 62.9246C51.2137 64.4018 49.5954 65.991 48.3298 67.4516C47.0643 68.9122 45.9107 70.132 45.2219 70.9826C44.4211 72.0739 43.9563 72.4432 43.8443 72.6839C43.7322 72.9246 43.5082 73.4059 43.2841 73.8872Z" fill="#8EC459"/>
</g>
<g opacity="0.4">
<path d="M167.089 656.936C162.629 672.795 173.036 681.054 177.33 683.697C178.322 684.358 178.982 684.688 178.982 684.688C188.728 689.313 205.908 684.688 213.507 666.352C221.105 647.851 218.958 621.751 207.89 616.796C207.56 616.631 207.229 616.465 206.899 616.465C195.501 612.997 172.54 637.61 167.089 656.936Z" fill="#534741"/>
<path d="M167.089 656.937C162.629 672.795 173.036 681.054 177.33 683.697C187.242 687.662 203.595 682.706 210.864 664.866C217.967 647.356 216.48 623.238 206.899 616.301C195.501 612.997 172.54 637.61 167.089 656.937Z" fill="#51A500"/>
<path d="M169.565 656.276C165.435 670.813 174.851 678.246 178.815 680.559C187.735 684.028 202.602 679.733 209.21 663.379C215.652 647.521 214.33 625.551 205.576 619.274C195.334 616.466 174.52 638.766 169.565 656.276Z" fill="#A9D800"/>
<path d="M176.175 650.495C172.541 657.763 175.349 666.518 182.617 670.152C189.886 673.786 198.641 670.978 202.275 663.71C205.909 656.441 203.101 647.687 195.832 644.052C188.729 640.253 179.809 643.226 176.175 650.495Z" fill="#A35826"/>
</g>
<path opacity="0.4" d="M407.199 654.9C407.199 654.9 444.814 657.363 438.684 690.87L430.759 681.409C430.775 681.366 430.82 681.311 430.793 681.252L431.548 672.592C431.575 672.263 431.342 671.98 431.014 671.952C430.685 671.924 430.404 672.157 430.378 672.486L428.771 679.029L422.588 671.635C422.603 671.593 422.648 671.537 422.622 671.479L423.377 662.819C423.404 662.489 423.171 662.207 422.842 662.179C422.514 662.151 422.233 662.384 422.206 662.713L420.531 669.181L413.455 661.521C413.235 661.268 412.864 661.224 412.612 661.443C412.361 661.663 412.318 662.035 412.538 662.288L418.554 670.708L412.429 670.903C412.101 670.875 411.82 671.107 411.793 671.437C411.766 671.766 411.999 672.048 412.328 672.076L420.311 672.734L426.249 679.816L420.63 680.663C420.301 680.635 420.02 680.868 419.993 681.197C419.967 681.526 420.2 681.809 420.528 681.836L428.512 682.494L436.575 692.105C402.702 692.253 407.199 654.9 407.199 654.9Z" fill="#9CCA22"/>
<g opacity="0.4">
<path d="M358.322 80.6528C360.842 82.4456 361.403 85.9725 359.611 88.4929L357.855 90.9276C356.062 93.448 352.535 94.0089 350.015 92.2161L347.58 90.4607C345.06 88.6679 344.499 85.1409 346.292 82.6206L348.047 80.1859C349.84 77.6655 353.367 77.1046 355.887 78.8974L358.322 80.6528Z" fill="#9CCA22"/>
<path d="M308.173 83.7142C308.173 83.7142 303.54 89.1235 309.382 92.8346C314.985 96.3699 321.23 89.391 318.975 85.0532C319.857 86.325 322.353 89.2487 326.501 87.7766C331.759 85.9119 331.971 81.968 331.971 81.968C331.971 81.968 332.13 86.2063 335.931 86.8862C339.754 87.5858 341.356 84.2178 341.356 84.2178C341.356 84.2178 344.947 82.482 357.033 92.3725L352.93 87.1271C352.972 87.1249 330.03 64.4346 308.173 83.7142Z" fill="#9CCA22"/>
<path d="M340.724 44.5668C340.724 44.5668 344.42 39.2275 349.037 43.5047C353.456 47.6039 348.767 54.7524 344.406 53.767C345.728 54.2418 348.883 55.7713 348.548 59.7635C348.164 64.8251 344.707 65.9263 344.707 65.9263C344.707 65.9263 348.469 65.0602 349.955 68.2668C351.44 71.4735 348.877 73.6576 348.877 73.6576C348.877 73.6576 348.184 77.2082 359.707 85.5592L354.144 83.1724C354.144 83.1724 328.827 68.2836 340.724 44.5668Z" fill="#9CCA22"/>
<path d="M350.871 85.3937C350.871 85.3937 340.237 65.6372 317.846 59.1095C317.846 59.1095 313.075 58.6686 311.71 61.7733C310.325 64.8998 312.104 70.5178 318.299 70.5705C324.494 70.6231 326.07 66.3569 326.07 66.3569C326.07 66.3569 322.672 69.777 328.733 74.0833C333.954 77.513 336.898 73.0079 336.898 73.0079C336.898 73.0079 344.991 78.1493 348.373 83.6207C349.514 85.4438 350.871 85.3937 350.871 85.3937Z" fill="#9CCA22"/>
<path d="M362.178 79.992C362.178 79.992 410.016 122.321 407.144 127.01C406.894 127.421 406.316 127.577 405.455 127.517C396.259 126.868 355.198 102.134 349.001 98.023C341.156 92.8267 348.516 83.9488 348.516 83.9488C348.573 83.8412 348.672 83.7314 348.729 83.6238C355.645 73.4721 362.178 79.992 362.178 79.992Z" fill="#F7954E"/>
<path d="M358.98 84.4269C358.98 84.4269 408.67 124.17 407.378 126.664C407.264 126.879 406.822 126.839 406.078 126.606C398.266 124.023 358.297 97.7672 352.178 93.5685C344.453 88.2406 348.495 83.9291 348.495 83.9291C348.534 83.8852 348.552 83.8215 348.611 83.7556C352.041 78.5348 358.98 84.4269 358.98 84.4269Z" fill="#F7AF7C"/>
<path d="M354.402 90.481C349.497 87.0975 349.342 84.135 349.879 82.3916C349.415 82.7296 348.998 83.1489 348.631 83.7329C348.591 83.7768 348.574 83.8405 348.514 83.9063C348.514 83.9063 344.452 88.2398 352.198 93.5458C358.317 97.7444 398.266 124.022 406.098 126.583C406.12 126.603 406.12 126.603 406.161 126.601C393.754 119.761 359.892 94.2732 354.402 90.481Z" fill="#F7CDAF"/>
<path d="M351.779 90.7019C352.126 90.9348 352.194 91.4333 351.939 91.7604L350.32 93.9997C350.087 94.3466 349.588 94.4145 349.261 94.1597C348.914 93.9268 348.846 93.4283 349.101 93.1011L350.72 90.8618C350.953 90.5149 351.452 90.447 351.779 90.7019Z" fill="white"/>
<path d="M369.791 101.119C370.138 101.352 370.206 101.851 369.951 102.178L368.332 104.417C368.099 104.764 367.6 104.832 367.273 104.577C366.926 104.344 366.858 103.846 367.113 103.519L368.732 101.279C368.987 100.952 369.464 100.865 369.791 101.119Z" fill="white"/>
<path d="M371.314 91.4378C371.661 91.6707 371.729 92.1692 371.474 92.4964L369.855 94.7357C369.622 95.0826 369.124 95.1505 368.796 94.8956C368.45 94.6627 368.382 94.1642 368.637 93.8371L370.256 91.5978C370.491 91.2926 370.967 91.2049 371.314 91.4378Z" fill="white"/>
<path d="M378.447 100.29C378.794 100.523 378.862 101.022 378.607 101.349L376.988 103.588C376.755 103.935 376.257 104.003 375.929 103.748C375.583 103.515 375.515 103.017 375.77 102.689L377.389 100.45C377.622 100.103 378.098 100.016 378.447 100.29Z" fill="white"/>
<path d="M381.822 109.611C382.169 109.844 382.237 110.343 381.982 110.67L380.363 112.909C380.13 113.256 379.632 113.324 379.304 113.069C378.958 112.836 378.89 112.338 379.145 112.011L380.764 109.771C380.997 109.424 381.453 109.359 381.822 109.611Z" fill="white"/>
<path d="M389.516 109.147C389.821 109.382 389.907 109.816 389.671 110.122L388.188 112.166C387.953 112.471 387.519 112.556 387.213 112.321C386.908 112.086 386.823 111.651 387.058 111.346L388.541 109.302C388.754 108.977 389.191 108.933 389.516 109.147Z" fill="white"/>
<path d="M396.817 116.274C397.122 116.51 397.207 116.944 396.994 117.269L395.494 119.377C395.259 119.682 394.824 119.768 394.499 119.554C394.194 119.319 394.108 118.885 394.321 118.56L395.822 116.452C396.055 116.105 396.512 116.039 396.817 116.274Z" fill="white"/>
<path d="M359.869 96.6378C360.216 96.8707 360.284 97.3692 360.029 97.6963L358.41 99.9356C358.177 100.283 357.678 100.35 357.351 100.096C357.004 99.8627 356.937 99.3642 357.191 99.0371L358.811 96.7977C359.044 96.4508 359.52 96.3632 359.869 96.6378Z" fill="white"/>
<path d="M361.127 85.0462C361.474 85.2791 361.542 85.7776 361.287 86.1048L359.667 88.3441C359.435 88.691 358.936 88.7589 358.609 88.504C358.262 88.2711 358.194 87.7726 358.449 87.4455L360.068 85.2062C360.323 84.8791 360.8 84.7914 361.127 85.0462Z" fill="white"/>
</g>
<g opacity="0.4">
<path d="M703.801 659.1C703.801 659.1 647.301 648.4 654.501 575C654.501 575 727.701 587.7 703.801 659.1Z" fill="#9CCA22"/>
<path d="M703.8 659.1C703.8 659.1 689 612.8 641 623C641 623 646.5 679 703.8 659.1Z" fill="#9CCA22"/>
</g>
</svg>
