<svg width="24" height="24" viewBox="0 0 24 24" fill="none" xmlns="http://www.w3.org/2000/svg">
<g clip-path="url(#clip0_352_11262)">
<path fill-rule="evenodd" clip-rule="evenodd" d="M9.09246 15.3681L17.5501 6.9106C17.7993 6.66134 18.2084 6.66389 18.4551 6.9106L19.2717 7.72717C19.5184 7.97387 19.5184 8.38556 19.2717 8.63217L10.8141 17.0898C10.5674 17.3365 10.1583 17.3391 9.90903 17.0898L9.09246 16.2732C8.8432 16.024 8.8432 15.6174 9.09246 15.3681Z" fill="white"/>
<path fill-rule="evenodd" clip-rule="evenodd" d="M6.45066 10.2132L11.6026 15.3652C11.8518 15.6145 11.8489 16.0241 11.6026 16.2703L10.7861 17.0869C10.5398 17.333 10.1272 17.333 9.88096 17.0869L4.72899 11.9349C4.48275 11.6887 4.47982 11.2791 4.72899 11.0298L5.54556 10.2132C5.79482 9.96408 6.2014 9.96408 6.45066 10.2132Z" fill="white"/>
</g>
<defs>
<clipPath id="clip0_352_11262">
<rect width="24" height="24" fill="white"/>
</clipPath>
</defs>
</svg>
