<svg width="65" height="44" viewBox="0 0 65 44" fill="none" xmlns="http://www.w3.org/2000/svg">
<g clip-path="url(#clip0_248_8674)">
<path d="M20.3026 19.1562C18.6825 19.1562 3.58285 6.90197 1.7683 5.53314C-0.0462493 4.16432 0.342582 6.96715 0.342582 9.96554C0.342582 12.3773 0.342582 20.3947 0.342582 23.5886C0.731414 23.719 1.05544 24.1101 1.05544 24.5664C1.05544 25.0878 0.666609 25.4789 0.212972 25.6093C0.018556 26.5218 -0.17586 28.1514 0.277777 28.0862C0.92583 27.9558 19.3305 42.8826 20.1082 43.7951C20.8859 44.7077 21.0803 42.2959 21.0155 41.9048C20.8859 41.5137 21.0155 22.3502 21.4043 21.3724C21.8579 20.3295 21.8579 19.1562 20.3026 19.1562Z" fill="white"/>
<path d="M34.5769 16.6142C39.2367 16.4172 61.3058 12.6086 63.0532 13.0682C64.2829 13.0682 65.1242 12.6742 61.7589 11.3609C58.3935 10.0475 52.8924 6.63286 52.3099 6.50152C51.7274 6.37019 38.3954 -0.393507 38.007 0.0661616C37.6187 -0.196506 36.1949 0.394496 35.2241 0.591497C34.2533 0.722831 27.8462 1.3795 26.8754 1.51083C25.9046 1.64217 19.4975 2.03617 17.8148 2.62717C15.7438 2.82417 2.28224 2.56151 2.60584 3.02118C2.86471 3.48084 2.60584 3.21818 2.60584 3.21818C2.60584 3.21818 19.2386 17.1396 22.604 17.9276C25.9693 18.7156 29.9172 16.8112 34.5769 16.6142ZM55.8047 9.5222C56.1283 9.5222 56.3872 9.78487 56.3872 10.1132C56.3872 10.4415 56.1283 10.7042 55.8047 10.7042C55.4811 10.7042 55.2223 10.4415 55.2223 10.1132C55.1575 9.78487 55.4164 9.5222 55.8047 9.5222ZM55.1575 11.4265C55.4811 11.4265 55.74 11.6892 55.74 12.0175C55.74 12.3459 55.4811 12.6086 55.1575 12.6086C54.8339 12.6086 54.5751 12.3459 54.5751 12.0175C54.5751 11.6892 54.8339 11.4265 55.1575 11.4265ZM52.7629 10.1132C53.2807 10.1132 53.669 10.5072 53.669 11.0325C53.669 11.5579 53.2807 11.9519 52.7629 11.9519C52.2452 11.9519 51.8569 11.5579 51.8569 11.0325C51.8569 10.5072 52.2452 10.1132 52.7629 10.1132Z" fill="white"/>
<path d="M64.7859 14.9302C64.7859 14.2762 60.3244 15.061 60.1276 14.9302C59.9308 14.7994 50.0238 16.2381 49.5645 16.3035C49.1052 16.3689 42.2819 17.3499 40.7729 17.6115C39.2638 17.8731 32.6373 18.3963 32.6373 18.3963C31.7188 18.4617 27.7166 19.181 26.6668 19.508C25.5515 19.835 24.1737 19.6388 23.7144 19.6388C23.2551 19.6388 23.3208 21.2084 22.9927 21.6008C22.6647 21.9931 22.5991 40.5007 22.7303 41.0239C22.8615 41.547 22.5334 43.7052 22.5334 43.9667C22.5334 44.2283 29.8161 42.855 30.0785 42.7896C30.341 42.6588 31.85 42.201 32.7029 42.2664C33.687 42.6588 36.8363 41.4162 37.0987 41.2854C37.3612 41.1546 41.2321 41.0239 42.3475 40.6315C43.0692 40.3699 46.8089 39.5197 49.2365 39.1273C49.3021 38.6041 49.7613 38.2118 50.2862 38.2118C50.7455 38.2118 51.1391 38.4733 51.2703 38.8657C51.4672 39.1273 55.2069 38.4733 55.2069 38.3426C55.2069 38.2118 56.5847 37.6232 57.044 37.8194C57.5689 37.9502 58.0281 37.6886 58.2906 37.5578C58.553 37.427 60.1276 37.1654 61.1118 37.0346C62.0959 36.9038 63.4737 36.773 64.4578 35.5958C65.442 33.5031 64.7859 14.9302 64.7859 14.9302ZM26.6668 41.0239C26.0764 41.0239 25.5515 40.5007 25.5515 39.9121C25.5515 39.3235 26.0764 38.8003 26.6668 38.8003C27.2573 38.8003 27.7822 39.3235 27.7822 39.9121C27.7822 40.5007 27.3229 41.0239 26.6668 41.0239ZM26.2732 37.6886C25.289 37.6886 24.5017 36.9038 24.5017 35.9228C24.5017 34.9419 25.289 34.1571 26.2732 34.1571C27.2573 34.1571 28.0446 34.9419 28.0446 35.9228C28.0446 36.9038 27.2573 37.6886 26.2732 37.6886ZM29.5537 38.8657C29.0944 38.8657 28.7007 38.4733 28.7007 38.0156C28.7007 37.5578 29.0944 37.2308 29.5537 37.2308C30.0129 37.2308 30.341 37.6232 30.341 38.0156C30.341 38.5387 30.0129 38.8657 29.5537 38.8657Z" fill="white"/>
</g>
<defs>
<clipPath id="clip0_248_8674">
<rect width="65" height="44" fill="white"/>
</clipPath>
</defs>
</svg>
