<svg width="178" height="232" viewBox="0 0 178 232" fill="none" xmlns="http://www.w3.org/2000/svg">
<g opacity="0.2">
<path d="M47.6127 97.7896L11.4059 103.779L10.0983 95.968L38.3314 91.1701L22.2787 -5.15286L115.033 -20.68L116.283 -12.7876L31.4786 1.40858L47.6127 97.7896Z" fill="url(#paint0_linear_75_5120)"/>
<path d="M72.5642 153.048L64.6719 154.297L40.0387 7.14526L100.852 -3.0349L107.18 34.7643L125.928 31.5541L122.309 9.93465L158.656 3.92198L160.044 11.791L131.509 16.4961L135.128 38.1156L100.618 43.9642L94.2908 6.16497L49.2386 13.7067L72.5642 153.048Z" fill="url(#paint1_linear_75_5120)"/>
<path d="M30.7246 85.1304L-16.5593 93.0457L-17.8902 85.0953L21.5247 78.5689L9.80353 8.54971L17.7539 7.21881L30.7246 85.1304Z" fill="url(#paint2_linear_75_5120)"/>
<path d="M61.1858 172.446L53.2354 173.777L43.3934 114.556L-1.9958 122.225L-4.63422 106.464L-32.8907 111.123L-19.1382 193.277L-27.0071 194.666L-42.0906 104.561L1.98528 97.1828L4.56564 113.026L49.9549 105.356L61.1858 172.446Z" fill="url(#paint3_linear_75_5120)"/>
<path d="M-37.9387 172.621L-45.831 173.87L-59.5135 92.1347L-25.6778 86.5423L-24.3702 94.3532L-50.3136 98.6961L-37.9387 172.621Z" fill="url(#paint4_linear_75_5120)"/>
<path d="M52.0669 181.787L3.33015 190.017L-2.62384 154.45L35.9536 147.203L32.8135 128.873L-21.0488 138.607L-24.9948 115.034L-11.3257 112.746L-9.99477 120.697L-15.7949 121.596L-14.4293 129.325L39.433 119.592L45.1301 153.625L6.61073 160.79L9.94965 180.736L50.8174 173.895L52.0669 181.787Z" fill="url(#paint5_linear_75_5120)"/>
<path d="M43.9555 168.878L15.0016 173.653L13.6941 165.842L42.706 160.986L43.9555 168.878Z" fill="url(#paint6_linear_75_5120)"/>
<path d="M-1.32007 205.494L-9.21238 206.743L-19.8829 143L28.5169 134.898L29.9058 142.767L-10.683 149.562L-1.32007 205.494Z" fill="url(#paint7_linear_75_5120)"/>
<path d="M41.3248 196.849L14.2656 201.379L16.3316 213.292L8.43933 214.542L5.06569 194.817L39.9358 188.98L41.3248 196.849Z" fill="url(#paint8_linear_75_5120)"/>
<path d="M170.993 25.3725L149.176 29.0963L152.538 49.1815L64.1078 63.9848L56.5547 19.293L89.8905 13.7126L95.1674 45.2352L87.3565 46.5427L83.3291 22.9124L65.836 25.9125L70.6692 54.7849L143.339 42.6201L139.895 22.4769L169.604 17.5035L170.993 25.3725Z" fill="url(#paint9_linear_75_5120)"/>
<path d="M143.458 -1.63541L116.259 2.91764L120.228 26.6293L112.359 28.0183L106.978 -3.70185L142.127 -9.58582L143.458 -1.63541Z" fill="url(#paint10_linear_75_5120)"/>
<path d="M118.741 92.2637L110.872 93.6526L107.276 72.1726L75.0561 77.5662L85.0495 137.264L77.1805 138.653L65.8562 71.0048L113.838 62.9727L118.741 92.2637Z" fill="url(#paint11_linear_75_5120)"/>
<path d="M135.288 66.4799L119.329 69.2231L117.998 61.2727L133.98 58.669L135.288 66.4799Z" fill="url(#paint12_linear_75_5120)"/>
<path d="M106.777 106.454L98.9083 107.843L95.476 87.3393L90.3966 88.2613L95.6969 119.923L87.8045 121.173L81.1968 81.6999L102.037 78.1394L106.777 106.454Z" fill="url(#paint13_linear_75_5120)"/>
<path d="M101.476 -24.5758L31.8755 -12.9246L30.4865 -20.7936L100.145 -32.5262L101.476 -24.5758Z" fill="url(#paint14_linear_75_5120)"/>
<path d="M25.8768 -12.7816L14.4395 -10.867L16.226 0.233393L8.33362 1.48287L5.15818 -17.4865L24.546 -20.732L25.8768 -12.7816Z" fill="url(#paint15_linear_75_5120)"/>
<path d="M14.0805 72.646L-40.7353 81.8222L-42.1243 73.9532L12.773 64.8352L14.0805 72.646Z" fill="url(#paint16_linear_75_5120)"/>
<path d="M9.36231 57.7351L-33.9347 65.0547L-35.3237 57.1858L0.162451 51.1737L-6.42198 11.8402L1.44701 10.4512L9.36231 57.7351Z" fill="url(#paint17_linear_75_5120)"/>
<path d="M81.8586 47.5347L73.9897 48.9236L70.8609 30.2332L78.7532 28.9838L81.8586 47.5347Z" fill="url(#paint18_linear_75_5120)"/>
</g>
<defs>
<linearGradient id="paint0_linear_75_5120" x1="-0.201155" y1="95.5387" x2="93.5728" y2="-35.943" gradientUnits="userSpaceOnUse">
<stop stop-color="#2C1E3B"/>
<stop offset="0.9955" stop-color="#18121F"/>
</linearGradient>
<linearGradient id="paint1_linear_75_5120" x1="24.0044" y1="125.339" x2="126.825" y2="-18.8269" gradientUnits="userSpaceOnUse">
<stop stop-color="#379278"/>
<stop offset="1" stop-color="#1E514D"/>
</linearGradient>
<linearGradient id="paint2_linear_75_5120" x1="-13.9883" y1="94.8441" x2="38.1223" y2="21.779" gradientUnits="userSpaceOnUse">
<stop stop-color="#FDD259"/>
<stop offset="1" stop-color="#FD8C28"/>
</linearGradient>
<linearGradient id="paint3_linear_75_5120" x1="-29.3027" y1="192.982" x2="38.827" y2="97.4564" gradientUnits="userSpaceOnUse">
<stop stop-color="#379278"/>
<stop offset="1" stop-color="#1E514D"/>
</linearGradient>
<linearGradient id="paint4_linear_75_5120" x1="-67.3873" y1="158.551" x2="-19.2613" y2="91.0725" gradientUnits="userSpaceOnUse">
<stop stop-color="#379278"/>
<stop offset="1" stop-color="#1E514D"/>
</linearGradient>
<linearGradient id="paint5_linear_75_5120" x1="-9.52411" y1="180.799" x2="35.9124" y2="117.091" gradientUnits="userSpaceOnUse">
<stop offset="0.0184358" stop-color="#EF4860"/>
<stop offset="1" stop-color="#DD1047"/>
</linearGradient>
<linearGradient id="paint6_linear_75_5120" x1="21.1672" y1="178.105" x2="36.5257" y2="156.57" gradientUnits="userSpaceOnUse">
<stop stop-color="#7CEEE2"/>
<stop offset="1" stop-color="#64A2E2"/>
</linearGradient>
<linearGradient id="paint7_linear_75_5120" x1="-25.5298" y1="195.121" x2="21.1783" y2="129.631" gradientUnits="userSpaceOnUse">
<stop stop-color="#379278"/>
<stop offset="1" stop-color="#1E514D"/>
</linearGradient>
<linearGradient id="paint8_linear_75_5120" x1="9.36487" y1="215.234" x2="32.1041" y2="183.351" gradientUnits="userSpaceOnUse">
<stop stop-color="#2C1E3B"/>
<stop offset="0.9955" stop-color="#18121F"/>
</linearGradient>
<linearGradient id="paint9_linear_75_5120" x1="77.324" y1="73.4498" x2="134.891" y2="-7.26609" gradientUnits="userSpaceOnUse">
<stop offset="0.0184358" stop-color="#EF4860"/>
<stop offset="1" stop-color="#DD1047"/>
</linearGradient>
<linearGradient id="paint10_linear_75_5120" x1="106.393" y1="23.7386" x2="134.199" y2="-15.2487" gradientUnits="userSpaceOnUse">
<stop stop-color="#7CEEE2"/>
<stop offset="1" stop-color="#64A2E2"/>
</linearGradient>
<linearGradient id="paint11_linear_75_5120" x1="60.2809" y1="126.555" x2="108.395" y2="59.0933" gradientUnits="userSpaceOnUse">
<stop stop-color="#379278"/>
<stop offset="1" stop-color="#1E514D"/>
</linearGradient>
<linearGradient id="paint12_linear_75_5120" x1="121.672" y1="70.8726" x2="131.597" y2="56.9577" gradientUnits="userSpaceOnUse">
<stop stop-color="#2C1E3B"/>
<stop offset="0.9955" stop-color="#18121F"/>
</linearGradient>
<linearGradient id="paint13_linear_75_5120" x1="79.0712" y1="114.994" x2="104.219" y2="79.7342" gradientUnits="userSpaceOnUse">
<stop stop-color="#FDD259"/>
<stop offset="1" stop-color="#FD8C28"/>
</linearGradient>
<linearGradient id="paint14_linear_75_5120" x1="49.8564" y1="-0.0667374" x2="82.1367" y2="-45.3274" gradientUnits="userSpaceOnUse">
<stop stop-color="#FDD259"/>
<stop offset="1" stop-color="#FD8C28"/>
</linearGradient>
<linearGradient id="paint15_linear_75_5120" x1="5.23408" y1="-0.701218" x2="21.1877" y2="-23.07" gradientUnits="userSpaceOnUse">
<stop offset="0.0184358" stop-color="#EF4860"/>
<stop offset="1" stop-color="#DD1047"/>
</linearGradient>
<linearGradient id="paint16_linear_75_5120" x1="-27.0609" y1="91.6361" x2="-0.940095" y2="55.0117" gradientUnits="userSpaceOnUse">
<stop stop-color="#2C1E3B"/>
<stop offset="0.9955" stop-color="#18121F"/>
</linearGradient>
<linearGradient id="paint17_linear_75_5120" x1="-24.7767" y1="71.6036" x2="12.9524" y2="18.703" gradientUnits="userSpaceOnUse">
<stop stop-color="#379278"/>
<stop offset="1" stop-color="#1E514D"/>
</linearGradient>
<linearGradient id="paint18_linear_75_5120" x1="70.8319" y1="46.659" x2="81.8842" y2="31.1624" gradientUnits="userSpaceOnUse">
<stop stop-color="#2C1E3B"/>
<stop offset="0.9955" stop-color="#18121F"/>
</linearGradient>
</defs>
</svg>
