<svg width="43" height="42" viewBox="0 0 43 42" fill="none" xmlns="http://www.w3.org/2000/svg">
<circle cx="21.0205" cy="21" r="20.5" stroke="#738065"/>
<g clip-path="url(#clip0_21_859)">
<path d="M24.7148 19.9224L19.4126 17.0212C19.1077 16.8544 18.7474 16.8607 18.4485 17.0377C18.1495 17.215 17.9712 17.5281 17.9712 17.8756V23.6281C17.9712 23.9739 18.1484 24.2865 18.4454 24.4639C18.6005 24.5566 18.7725 24.6031 18.9448 24.6031C19.1026 24.6031 19.2608 24.5641 19.4064 24.4857L24.7087 21.6346C25.0235 21.4652 25.22 21.138 25.2214 20.7804C25.2227 20.4228 25.0286 20.0941 24.7148 19.9224ZM19.3776 22.9044V18.6051L23.3404 20.7734L19.3776 22.9044Z" fill="#738065"/>
<path d="M32.844 16.1966L32.8429 16.1856C32.8226 15.9924 32.6202 14.2742 31.7849 13.4002C30.8194 12.3723 29.7248 12.2474 29.1984 12.1875C29.1548 12.1826 29.1149 12.178 29.0792 12.1732L29.0372 12.1688C25.8644 11.9381 21.0727 11.9066 21.0247 11.9064L21.0205 11.9062L21.0163 11.9064C20.9683 11.9066 16.1766 11.9381 12.9752 12.1688L12.9329 12.1732C12.8989 12.1778 12.8613 12.182 12.8205 12.1868C12.3001 12.2468 11.2172 12.3719 10.249 13.437C9.45337 14.3016 9.22339 15.9831 9.19977 16.1721L9.19702 16.1966C9.18988 16.277 9.02051 18.1906 9.02051 20.1118V21.9077C9.02051 23.8288 9.18988 25.7424 9.19702 25.823L9.1983 25.8351C9.21863 26.0251 9.42078 27.7119 10.2523 28.5862C11.1601 29.5798 12.308 29.7112 12.9254 29.7819C13.023 29.7931 13.1071 29.8026 13.1644 29.8127L13.2198 29.8204C15.0518 29.9947 20.7957 30.0806 21.0392 30.084L21.0465 30.0842L21.0538 30.084C21.1018 30.0839 25.8933 30.0524 29.0662 29.8217L29.1081 29.8173C29.1482 29.812 29.1932 29.8072 29.2427 29.8021C29.7601 29.7471 30.8372 29.6331 31.7921 28.5824C32.5876 27.7176 32.8178 26.0361 32.8412 25.8474L32.844 25.8228C32.8511 25.7422 33.0207 23.8288 33.0207 21.9077V20.1118C33.0205 18.1906 32.8511 16.2772 32.844 16.1966ZM31.6141 21.9077C31.6141 23.6858 31.4588 25.517 31.4442 25.6851C31.3845 26.1482 31.1418 27.212 30.7542 27.6334C30.1566 28.2909 29.5426 28.3561 29.0944 28.4035C29.0402 28.4092 28.99 28.4147 28.9446 28.4203C25.8757 28.6423 21.265 28.6763 21.0526 28.6776C20.8143 28.6741 15.1545 28.5875 13.3784 28.4225C13.2874 28.4077 13.1891 28.3964 13.0854 28.3846C12.5598 28.3244 11.8401 28.242 11.2868 27.6334L11.2738 27.6194C10.8929 27.2227 10.6573 26.2278 10.5974 25.6906C10.5862 25.5635 10.4269 23.7107 10.4269 21.9077V20.1118C10.4269 18.3356 10.5818 16.5064 10.5969 16.3348C10.6681 15.7894 10.9153 14.79 11.2868 14.386C11.9028 13.7086 12.5522 13.6335 12.9818 13.5839C13.0228 13.5791 13.0611 13.5747 13.0964 13.5701C16.21 13.3471 20.8539 13.314 21.0205 13.3127C21.1871 13.3138 25.8294 13.3471 28.9153 13.5701C28.9532 13.5749 28.9946 13.5797 29.0391 13.5848C29.4809 13.6351 30.1487 13.7113 30.7615 14.365L30.7672 14.371C31.1481 14.7678 31.3837 15.78 31.4436 16.3281C31.4542 16.448 31.6141 18.3049 31.6141 20.1118V21.9077Z" fill="#738065"/>
</g>
<defs>
<clipPath id="clip0_21_859">
<rect width="24.0001" height="24" fill="white" transform="translate(9.02051 9)"/>
</clipPath>
</defs>
</svg>
